<svg width="44" height="44" viewBox="0 0 44 44" fill="none" xmlns="http://www.w3.org/2000/svg">
<path d="M24.9666 21.9866C24.9664 22.6762 24.727 23.3444 24.2893 23.8774C23.8516 24.4102 23.2425 24.7748 22.5661 24.909C21.8896 25.0432 21.1875 24.9386 20.5796 24.613C19.9716 24.2875 19.4953 23.7612 19.232 23.1238C18.9686 22.4865 18.9345 21.7775 19.1353 21.1177C19.3362 20.458 19.7596 19.8884 20.3335 19.5059C20.9074 19.1234 21.5961 18.9518 22.2823 19.0203C22.9686 19.0888 23.6098 19.3931 24.0968 19.8815C24.3729 20.158 24.5919 20.4863 24.7412 20.8475C24.8904 21.2087 24.967 21.5958 24.9666 21.9866Z" fill="url(#paint0_linear_6_86)"/>
<path d="M29.9281 29.9286C28.8867 30.9727 27.6492 31.8007 26.2868 32.3651C24.9244 32.9294 23.4639 33.219 21.9892 33.2172V31.5374C24.521 31.5369 26.9491 30.531 28.7396 28.741C30.5301 26.951 31.5366 24.5232 31.5378 21.9915H33.2171C33.2187 23.4659 32.929 24.9261 32.3646 26.2882C31.8001 27.6503 30.9721 28.8874 29.9281 29.9286Z" fill="url(#paint1_linear_6_86)"/>
<path d="M27.3267 27.3272C26.6265 28.029 25.7946 28.5856 24.8787 28.9651C23.9628 29.3446 22.981 29.5395 21.9896 29.5386V27.8165C23.5344 27.8153 25.0156 27.2012 26.1079 26.1088C27.2003 25.0165 27.8145 23.5354 27.8156 21.9906H29.5374C29.5385 22.9819 29.3438 23.9636 28.9644 24.8794C28.5851 25.7953 28.0285 26.6271 27.3267 27.3272Z" fill="url(#paint2_linear_6_86)"/>
<path d="M12.4349 21.9914H10.7556C10.7546 20.5159 11.0445 19.0546 11.6087 17.6911C12.1728 16.3276 13.0002 15.0887 14.0435 14.0452C15.0868 13.0017 16.3256 12.174 17.6889 11.6096C19.0523 11.0451 20.5136 10.7549 21.9892 10.7556V12.4353C20.7342 12.4347 19.4913 12.6815 18.3318 13.1615C17.1722 13.6416 16.1186 14.3455 15.2313 15.233C14.3439 16.1205 13.6402 17.1743 13.1604 18.3339C12.6806 19.4936 12.4341 20.7364 12.4349 21.9914Z" fill="url(#paint3_linear_6_86)"/>
<path d="M16.1558 21.9914H14.4337C14.4329 20.9989 14.6277 20.016 15.0071 19.0988C15.3864 18.1816 15.9429 17.3482 16.6446 16.6464C17.3464 15.9444 18.1796 15.3878 19.0967 15.0081C20.0137 14.6285 20.9967 14.4335 21.9892 14.434V16.1561C21.2229 16.1558 20.464 16.3065 19.756 16.5996C19.0479 16.8927 18.4046 17.3226 17.8628 17.8646C17.3211 18.4065 16.8914 19.0499 16.5985 19.7581C16.3056 20.4662 16.1552 21.2251 16.1558 21.9914Z" fill="url(#paint4_linear_6_86)"/>
<defs>
<linearGradient id="paint0_linear_6_86" x1="11.9725" y1="6.23092" x2="34.6071" y2="41.8477" gradientUnits="userSpaceOnUse">
<stop stop-color="#00AEEF"/>
<stop offset="1" stop-color="#F9ED32"/>
</linearGradient>
<linearGradient id="paint1_linear_6_86" x1="13.431" y1="5.30405" x2="36.0652" y2="40.9208" gradientUnits="userSpaceOnUse">
<stop stop-color="#00AEEF"/>
<stop offset="1" stop-color="#F9ED32"/>
</linearGradient>
<linearGradient id="paint2_linear_6_86" x1="12.9536" y1="5.60753" x2="35.5877" y2="41.2243" gradientUnits="userSpaceOnUse">
<stop stop-color="#00AEEF"/>
<stop offset="1" stop-color="#F9ED32"/>
</linearGradient>
<linearGradient id="paint3_linear_6_86" x1="10.5152" y1="7.15733" x2="33.1494" y2="42.7737" gradientUnits="userSpaceOnUse">
<stop stop-color="#00AEEF"/>
<stop offset="1" stop-color="#F9ED32"/>
</linearGradient>
<linearGradient id="paint4_linear_6_86" x1="10.9927" y1="6.8538" x2="33.6268" y2="42.4702" gradientUnits="userSpaceOnUse">
<stop stop-color="#00AEEF"/>
<stop offset="1" stop-color="#F9ED32"/>
</linearGradient>
</defs>
</svg>
