<svg width="789" height="526" viewBox="0 0 789 526" fill="none" xmlns="http://www.w3.org/2000/svg">
<g filter="url(#filter0_d_10_180)">
<rect x="27" y="27" width="715" height="451.051" rx="23" fill="black"/>
<g clip-path="url(#clip0_10_180)">
<path d="M517.623 166.231H690.004V338.612H517.623V166.231Z" fill="white"/>
<path d="M536.259 187.196H568.871ZM582.848 187.196H592.166ZM596.825 187.196H610.802ZM620.12 187.196H634.097ZM638.756 187.196H671.368ZM536.259 191.855H540.918ZM564.212 191.855H568.871ZM582.848 191.855H624.779ZM629.438 191.855H634.097ZM638.756 191.855H643.415ZM666.709 191.855H671.368ZM536.259 196.514H540.918ZM545.577 196.514H559.554ZM564.212 196.514H568.871ZM573.53 196.514H592.166ZM596.825 196.514H601.484ZM606.143 196.514H610.802ZM620.12 196.514H624.779ZM629.438 196.514H634.097ZM638.756 196.514H643.415ZM648.073 196.514H662.05ZM666.709 196.514H671.368ZM536.259 201.173H540.918ZM545.577 201.173H559.554ZM564.212 201.173H568.871ZM573.53 201.173H578.189ZM587.507 201.173H592.166ZM601.484 201.173H610.802ZM615.461 201.173H624.779ZM629.438 201.173H634.097ZM638.756 201.173H643.415ZM648.073 201.173H662.05ZM666.709 201.173H671.368ZM536.259 205.832H540.918ZM545.577 205.832H559.554ZM564.212 205.832H568.871ZM573.53 205.832H582.848ZM587.507 205.832H596.825ZM606.143 205.832H634.097ZM638.756 205.832H643.415ZM648.073 205.832H662.05ZM666.709 205.832H671.368ZM536.259 210.491H540.918ZM564.212 210.491H568.871ZM573.53 210.491H582.848ZM592.166 210.491H596.825ZM615.461 210.491H620.12ZM638.756 210.491H643.415ZM666.709 210.491H671.368ZM536.259 215.15H568.871ZM573.53 215.15H578.189ZM582.848 215.15H587.507ZM592.166 215.15H596.825ZM601.484 215.15H606.143ZM610.802 215.15H615.461ZM620.12 215.15H624.779ZM629.438 215.15H634.097ZM638.756 215.15H671.368ZM573.53 219.809H582.848ZM587.507 219.809H596.825ZM601.484 219.809H606.143ZM610.802 219.809H615.461ZM620.12 219.809H624.779ZM536.259 224.468H540.918ZM545.577 224.468H568.871ZM582.848 224.468H596.825ZM610.802 224.468H620.12ZM624.779 224.468H629.438ZM638.756 224.468H662.05ZM550.236 229.127H559.554ZM573.53 229.127H578.189ZM592.166 229.127H610.802ZM615.461 229.127H652.732ZM666.709 229.127H671.368ZM536.259 233.786H545.577ZM559.554 233.786H568.871ZM578.189 233.786H582.848ZM587.507 233.786H615.461ZM620.12 233.786H624.779ZM540.918 238.444H564.212ZM573.53 238.444H578.189ZM582.848 238.444H587.507ZM596.825 238.444H601.484ZM606.143 238.444H610.802ZM629.438 238.444H634.097ZM643.415 238.444H657.391ZM662.05 238.444H666.709ZM545.577 243.103H550.236ZM564.212 243.103H568.871ZM578.189 243.103H582.848ZM592.166 243.103H596.825ZM601.484 243.103H610.802ZM615.461 243.103H620.12ZM629.438 243.103H634.097ZM643.415 243.103H648.073ZM652.732 243.103H662.05ZM550.236 247.762H564.212ZM582.848 247.762H587.507ZM606.143 247.762H652.732ZM666.709 247.762H671.368ZM536.259 252.421H545.577ZM554.895 252.421H559.554ZM564.212 252.421H568.871ZM582.848 252.421H587.507ZM592.166 252.421H596.825ZM615.461 252.421H620.12ZM629.438 252.421H634.097ZM638.756 252.421H643.415ZM648.073 252.421H662.05ZM540.918 257.08H545.577ZM550.236 257.08H554.895ZM559.554 257.08H564.212ZM568.871 257.08H578.189ZM582.848 257.08H596.825ZM601.484 257.08H606.143ZM610.802 257.08H615.461ZM634.097 257.08H648.073ZM662.05 257.08H666.709ZM550.236 261.739H568.871ZM578.189 261.739H596.825ZM615.461 261.739H629.438ZM652.732 261.739H662.05ZM536.259 266.398H550.236ZM554.895 266.398H559.554ZM578.189 266.398H582.848ZM587.507 266.398H592.166ZM596.825 266.398H610.802ZM615.461 266.398H652.732ZM657.391 266.398H662.05ZM666.709 266.398H671.368ZM536.259 271.057H540.918ZM554.895 271.057H568.871ZM573.53 271.057H587.507ZM596.825 271.057H620.12ZM629.438 271.057H634.097ZM643.415 271.057H648.073ZM657.391 271.057H662.05ZM536.259 275.716H540.918ZM545.577 275.716H564.212ZM568.871 275.716H573.53ZM578.189 275.716H592.166ZM596.825 275.716H601.484ZM610.802 275.716H615.461ZM624.779 275.716H648.073ZM662.05 275.716H666.709ZM536.259 280.375H540.918ZM550.236 280.375H554.895ZM564.212 280.375H568.871ZM573.53 280.375H578.189ZM582.848 280.375H587.507ZM601.484 280.375H606.143ZM615.461 280.375H620.12ZM629.438 280.375H652.732ZM657.391 280.375H671.368ZM573.53 285.034H582.848ZM587.507 285.034H596.825ZM629.438 285.034H634.097ZM648.073 285.034H671.368ZM536.259 289.693H568.871ZM578.189 289.693H582.848ZM592.166 289.693H596.825ZM606.143 289.693H610.802ZM615.461 289.693H634.097ZM638.756 289.693H643.415ZM648.073 289.693H662.05ZM536.259 294.352H540.918ZM564.212 294.352H568.871ZM573.53 294.352H582.848ZM592.166 294.352H596.825ZM601.484 294.352H606.143ZM610.802 294.352H615.461ZM624.779 294.352H634.097ZM648.073 294.352H652.732ZM662.05 294.352H666.709ZM536.259 299.011H540.918ZM545.577 299.011H559.554ZM564.212 299.011H568.871ZM573.53 299.011H582.848ZM606.143 299.011H610.802ZM615.461 299.011H620.12ZM629.438 299.011H652.732ZM657.391 299.011H666.709ZM536.259 303.67H540.918ZM545.577 303.67H559.554ZM564.212 303.67H568.871ZM573.53 303.67H578.189ZM582.848 303.67H606.143ZM610.802 303.67H615.461ZM620.12 303.67H624.779ZM629.438 303.67H634.097ZM652.732 303.67H671.368ZM536.259 308.329H540.918ZM545.577 308.329H559.554ZM564.212 308.329H568.871ZM573.53 308.329H592.166ZM596.825 308.329H601.484ZM606.143 308.329H610.802ZM624.779 308.329H666.709ZM536.259 312.988H540.918ZM564.212 312.988H568.871ZM596.825 312.988H615.461ZM629.438 312.988H638.756ZM648.073 312.988H657.391ZM662.05 312.988H666.709ZM536.259 317.647H568.871ZM573.53 317.647H582.848ZM587.507 317.647H606.143ZM615.461 317.647H620.12ZM638.756 317.647H652.732ZM657.391 317.647H662.05Z" fill="black"/>
<path d="M536.259 187.196H568.871M582.848 187.196H592.166M596.825 187.196H610.802M620.12 187.196H634.097M638.756 187.196H671.368M536.259 191.855H540.918M564.212 191.855H568.871M582.848 191.855H624.779M629.438 191.855H634.097M638.756 191.855H643.415M666.709 191.855H671.368M536.259 196.514H540.918M545.577 196.514H559.554M564.212 196.514H568.871M573.53 196.514H592.166M596.825 196.514H601.484M606.143 196.514H610.802M620.12 196.514H624.779M629.438 196.514H634.097M638.756 196.514H643.415M648.073 196.514H662.05M666.709 196.514H671.368M536.259 201.173H540.918M545.577 201.173H559.554M564.212 201.173H568.871M573.53 201.173H578.189M587.507 201.173H592.166M601.484 201.173H610.802M615.461 201.173H624.779M629.438 201.173H634.097M638.756 201.173H643.415M648.073 201.173H662.05M666.709 201.173H671.368M536.259 205.832H540.918M545.577 205.832H559.554M564.212 205.832H568.871M573.53 205.832H582.848M587.507 205.832H596.825M606.143 205.832H634.097M638.756 205.832H643.415M648.073 205.832H662.05M666.709 205.832H671.368M536.259 210.491H540.918M564.212 210.491H568.871M573.53 210.491H582.848M592.166 210.491H596.825M615.461 210.491H620.12M638.756 210.491H643.415M666.709 210.491H671.368M536.259 215.15H568.871M573.53 215.15H578.189M582.848 215.15H587.507M592.166 215.15H596.825M601.484 215.15H606.143M610.802 215.15H615.461M620.12 215.15H624.779M629.438 215.15H634.097M638.756 215.15H671.368M573.53 219.809H582.848M587.507 219.809H596.825M601.484 219.809H606.143M610.802 219.809H615.461M620.12 219.809H624.779M536.259 224.468H540.918M545.577 224.468H568.871M582.848 224.468H596.825M610.802 224.468H620.12M624.779 224.468H629.438M638.756 224.468H662.05M550.236 229.127H559.554M573.53 229.127H578.189M592.166 229.127H610.802M615.461 229.127H652.732M666.709 229.127H671.368M536.259 233.786H545.577M559.554 233.786H568.871M578.189 233.786H582.848M587.507 233.786H615.461M620.12 233.786H624.779M540.918 238.444H564.212M573.53 238.444H578.189M582.848 238.444H587.507M596.825 238.444H601.484M606.143 238.444H610.802M629.438 238.444H634.097M643.415 238.444H657.391M662.05 238.444H666.709M545.577 243.103H550.236M564.212 243.103H568.871M578.189 243.103H582.848M592.166 243.103H596.825M601.484 243.103H610.802M615.461 243.103H620.12M629.438 243.103H634.097M643.415 243.103H648.073M652.732 243.103H662.05M550.236 247.762H564.212M582.848 247.762H587.507M606.143 247.762H652.732M666.709 247.762H671.368M536.259 252.421H545.577M554.895 252.421H559.554M564.212 252.421H568.871M582.848 252.421H587.507M592.166 252.421H596.825M615.461 252.421H620.12M629.438 252.421H634.097M638.756 252.421H643.415M648.073 252.421H662.05M540.918 257.08H545.577M550.236 257.08H554.895M559.554 257.08H564.212M568.871 257.08H578.189M582.848 257.08H596.825M601.484 257.08H606.143M610.802 257.08H615.461M634.097 257.08H648.073M662.05 257.08H666.709M550.236 261.739H568.871M578.189 261.739H596.825M615.461 261.739H629.438M652.732 261.739H662.05M536.259 266.398H550.236M554.895 266.398H559.554M578.189 266.398H582.848M587.507 266.398H592.166M596.825 266.398H610.802M615.461 266.398H652.732M657.391 266.398H662.05M666.709 266.398H671.368M536.259 271.057H540.918M554.895 271.057H568.871M573.53 271.057H587.507M596.825 271.057H620.12M629.438 271.057H634.097M643.415 271.057H648.073M657.391 271.057H662.05M536.259 275.716H540.918M545.577 275.716H564.212M568.871 275.716H573.53M578.189 275.716H592.166M596.825 275.716H601.484M610.802 275.716H615.461M624.779 275.716H648.073M662.05 275.716H666.709M536.259 280.375H540.918M550.236 280.375H554.895M564.212 280.375H568.871M573.53 280.375H578.189M582.848 280.375H587.507M601.484 280.375H606.143M615.461 280.375H620.12M629.438 280.375H652.732M657.391 280.375H671.368M573.53 285.034H582.848M587.507 285.034H596.825M629.438 285.034H634.097M648.073 285.034H671.368M536.259 289.693H568.871M578.189 289.693H582.848M592.166 289.693H596.825M606.143 289.693H610.802M615.461 289.693H634.097M638.756 289.693H643.415M648.073 289.693H662.05M536.259 294.352H540.918M564.212 294.352H568.871M573.53 294.352H582.848M592.166 294.352H596.825M601.484 294.352H606.143M610.802 294.352H615.461M624.779 294.352H634.097M648.073 294.352H652.732M662.05 294.352H666.709M536.259 299.011H540.918M545.577 299.011H559.554M564.212 299.011H568.871M573.53 299.011H582.848M606.143 299.011H610.802M615.461 299.011H620.12M629.438 299.011H652.732M657.391 299.011H666.709M536.259 303.67H540.918M545.577 303.67H559.554M564.212 303.67H568.871M573.53 303.67H578.189M582.848 303.67H606.143M610.802 303.67H615.461M620.12 303.67H624.779M629.438 303.67H634.097M652.732 303.67H671.368M536.259 308.329H540.918M545.577 308.329H559.554M564.212 308.329H568.871M573.53 308.329H592.166M596.825 308.329H601.484M606.143 308.329H610.802M624.779 308.329H666.709M536.259 312.988H540.918M564.212 312.988H568.871M596.825 312.988H615.461M629.438 312.988H638.756M648.073 312.988H657.391M662.05 312.988H666.709M536.259 317.647H568.871M573.53 317.647H582.848M587.507 317.647H606.143M615.461 317.647H620.12M638.756 317.647H652.732M657.391 317.647H662.05" stroke="black" stroke-width="4.65895"/>
</g>
<path d="M80.7764 226.769H84.633L90.5112 236.998H90.7529L96.6311 226.769H100.488L92.3241 240.437V249.271H88.94V240.437L80.7764 226.769ZM107.758 249.612C106.176 249.612 104.796 249.249 103.616 248.524C102.437 247.799 101.521 246.784 100.869 245.481C100.218 244.177 99.8915 242.653 99.8915 240.91C99.8915 239.159 100.218 237.628 100.869 236.317C101.521 235.006 102.437 233.988 103.616 233.263C104.796 232.537 106.176 232.175 107.758 232.175C109.341 232.175 110.721 232.537 111.901 233.263C113.08 233.988 113.996 235.006 114.647 236.317C115.299 237.628 115.625 239.159 115.625 240.91C115.625 242.653 115.299 244.177 114.647 245.481C113.996 246.784 113.08 247.799 111.901 248.524C110.721 249.249 109.341 249.612 107.758 249.612ZM107.769 246.854C108.795 246.854 109.645 246.583 110.318 246.041C110.992 245.499 111.49 244.777 111.813 243.876C112.142 242.975 112.307 241.983 112.307 240.899C112.307 239.822 112.142 238.833 111.813 237.932C111.49 237.024 110.992 236.295 110.318 235.746C109.645 235.196 108.795 234.922 107.769 234.922C106.737 234.922 105.88 235.196 105.198 235.746C104.525 236.295 104.023 237.024 103.693 237.932C103.371 238.833 103.21 239.822 103.21 240.899C103.21 241.983 103.371 242.975 103.693 243.876C104.023 244.777 104.525 245.499 105.198 246.041C105.88 246.583 106.737 246.854 107.769 246.854ZM129.983 242.272V232.395H133.279V249.271H130.049V246.349H129.873C129.485 247.249 128.862 248 128.005 248.601C127.156 249.194 126.097 249.491 124.83 249.491C123.746 249.491 122.786 249.253 121.951 248.777C121.124 248.293 120.472 247.579 119.996 246.634C119.527 245.689 119.292 244.521 119.292 243.129V232.395H122.578V242.734C122.578 243.884 122.896 244.799 123.533 245.481C124.171 246.162 124.998 246.502 126.017 246.502C126.632 246.502 127.243 246.349 127.851 246.041C128.467 245.733 128.976 245.268 129.379 244.645C129.789 244.023 129.99 243.232 129.983 242.272ZM137.693 249.271V232.395H140.869V235.076H141.044C141.352 234.167 141.894 233.453 142.671 232.933C143.454 232.406 144.341 232.142 145.329 232.142C145.535 232.142 145.776 232.149 146.055 232.164C146.34 232.179 146.564 232.197 146.725 232.219V235.361C146.593 235.325 146.359 235.284 146.022 235.24C145.685 235.189 145.348 235.163 145.011 235.163C144.234 235.163 143.542 235.328 142.934 235.658C142.334 235.98 141.857 236.431 141.506 237.009C141.154 237.581 140.978 238.233 140.978 238.965V249.271H137.693ZM176.182 226.769V249.271H173.061L161.624 232.768H161.415V249.271H158.02V226.769H161.162L172.611 243.294H172.82V226.769H176.182ZM185.782 249.645C184.712 249.645 183.746 249.447 182.881 249.051C182.017 248.649 181.332 248.066 180.827 247.304C180.328 246.543 180.079 245.609 180.079 244.503C180.079 243.55 180.263 242.767 180.629 242.151C180.995 241.536 181.489 241.049 182.112 240.69C182.735 240.331 183.431 240.06 184.2 239.877C184.969 239.694 185.753 239.555 186.551 239.459C187.562 239.342 188.382 239.247 189.012 239.174C189.642 239.093 190.1 238.965 190.386 238.789C190.671 238.613 190.814 238.328 190.814 237.932V237.855C190.814 236.896 190.543 236.152 190.001 235.625C189.466 235.098 188.668 234.834 187.606 234.834C186.5 234.834 185.628 235.079 184.991 235.57C184.361 236.053 183.925 236.592 183.683 237.185L180.596 236.482C180.962 235.456 181.497 234.629 182.2 233.999C182.911 233.362 183.727 232.9 184.65 232.614C185.573 232.321 186.544 232.175 187.562 232.175C188.236 232.175 188.95 232.255 189.704 232.417C190.466 232.57 191.177 232.856 191.836 233.274C192.502 233.691 193.048 234.288 193.473 235.065C193.898 235.834 194.11 236.834 194.11 238.064V249.271H190.902V246.964H190.77C190.558 247.389 190.239 247.806 189.814 248.216C189.389 248.627 188.844 248.967 188.177 249.238C187.511 249.509 186.712 249.645 185.782 249.645ZM186.496 247.008C187.404 247.008 188.181 246.828 188.825 246.469C189.477 246.11 189.972 245.642 190.309 245.063C190.653 244.477 190.825 243.851 190.825 243.184V241.009C190.708 241.126 190.481 241.236 190.144 241.338C189.814 241.434 189.437 241.518 189.012 241.591C188.587 241.657 188.173 241.719 187.771 241.778C187.368 241.829 187.031 241.873 186.76 241.91C186.122 241.99 185.54 242.126 185.013 242.316C184.493 242.507 184.075 242.781 183.76 243.14C183.453 243.492 183.299 243.961 183.299 244.547C183.299 245.36 183.599 245.975 184.2 246.392C184.8 246.803 185.566 247.008 186.496 247.008ZM198.486 249.271V232.395H201.639V235.141H201.848C202.2 234.211 202.775 233.486 203.573 232.966C204.371 232.439 205.327 232.175 206.441 232.175C207.569 232.175 208.514 232.439 209.275 232.966C210.045 233.493 210.612 234.219 210.978 235.141H211.154C211.557 234.241 212.198 233.523 213.077 232.988C213.956 232.446 215.003 232.175 216.219 232.175C217.75 232.175 218.999 232.655 219.966 233.614C220.94 234.574 221.427 236.02 221.427 237.954V249.271H218.142V238.262C218.142 237.119 217.831 236.291 217.208 235.779C216.586 235.266 215.842 235.01 214.978 235.01C213.908 235.01 213.077 235.339 212.484 235.998C211.89 236.65 211.594 237.489 211.594 238.515V249.271H208.32V238.053C208.32 237.137 208.034 236.401 207.463 235.845C206.891 235.288 206.148 235.01 205.232 235.01C204.609 235.01 204.034 235.174 203.507 235.504C202.987 235.826 202.566 236.277 202.244 236.855C201.929 237.434 201.771 238.104 201.771 238.866V249.271H198.486ZM233.104 249.612C231.441 249.612 230.009 249.256 228.808 248.546C227.614 247.828 226.691 246.821 226.039 245.524C225.395 244.221 225.072 242.693 225.072 240.943C225.072 239.214 225.395 237.691 226.039 236.372C226.691 235.054 227.599 234.024 228.764 233.285C229.936 232.545 231.306 232.175 232.873 232.175C233.826 232.175 234.748 232.332 235.642 232.647C236.536 232.962 237.338 233.457 238.048 234.131C238.759 234.805 239.319 235.68 239.729 236.757C240.14 237.826 240.345 239.126 240.345 240.657V241.822H226.929V239.361H237.125C237.125 238.496 236.95 237.731 236.598 237.064C236.246 236.39 235.752 235.859 235.115 235.471C234.485 235.083 233.745 234.889 232.895 234.889C231.972 234.889 231.167 235.116 230.478 235.57C229.797 236.017 229.27 236.603 228.896 237.328C228.53 238.046 228.347 238.826 228.347 239.668V241.591C228.347 242.719 228.544 243.679 228.94 244.47C229.343 245.261 229.903 245.865 230.621 246.283C231.339 246.693 232.177 246.898 233.137 246.898C233.76 246.898 234.327 246.81 234.84 246.634C235.353 246.451 235.796 246.18 236.17 245.821C236.543 245.462 236.829 245.019 237.027 244.492L240.136 245.052C239.887 245.968 239.44 246.77 238.795 247.458C238.158 248.139 237.356 248.67 236.389 249.051C235.43 249.425 234.335 249.612 233.104 249.612ZM252.442 249.271V226.769H255.837V236.548H267.055V226.769H270.461V249.271H267.055V239.459H255.837V249.271H252.442ZM282.415 249.612C280.752 249.612 279.32 249.256 278.119 248.546C276.925 247.828 276.002 246.821 275.35 245.524C274.706 244.221 274.383 242.693 274.383 240.943C274.383 239.214 274.706 237.691 275.35 236.372C276.002 235.054 276.91 234.024 278.075 233.285C279.247 232.545 280.617 232.175 282.184 232.175C283.136 232.175 284.059 232.332 284.953 232.647C285.847 232.962 286.649 233.457 287.359 234.131C288.07 234.805 288.63 235.68 289.04 236.757C289.45 237.826 289.656 239.126 289.656 240.657V241.822H276.24V239.361H286.436C286.436 238.496 286.261 237.731 285.909 237.064C285.557 236.39 285.063 235.859 284.426 235.471C283.796 235.083 283.056 234.889 282.206 234.889C281.283 234.889 280.478 235.116 279.789 235.57C279.108 236.017 278.58 236.603 278.207 237.328C277.841 238.046 277.657 238.826 277.657 239.668V241.591C277.657 242.719 277.855 243.679 278.251 244.47C278.654 245.261 279.214 245.865 279.932 246.283C280.65 246.693 281.488 246.898 282.448 246.898C283.071 246.898 283.638 246.81 284.151 246.634C284.664 246.451 285.107 246.18 285.48 245.821C285.854 245.462 286.14 245.019 286.337 244.492L289.447 245.052C289.198 245.968 288.751 246.77 288.106 247.458C287.469 248.139 286.667 248.67 285.7 249.051C284.741 249.425 283.646 249.612 282.415 249.612ZM293.301 249.271V232.395H296.476V235.076H296.652C296.959 234.167 297.501 233.453 298.278 232.933C299.062 232.406 299.948 232.142 300.937 232.142C301.142 232.142 301.384 232.149 301.662 232.164C301.948 232.179 302.171 232.197 302.332 232.219V235.361C302.2 235.325 301.966 235.284 301.629 235.24C301.292 235.189 300.955 235.163 300.618 235.163C299.842 235.163 299.15 235.328 298.542 235.658C297.941 235.98 297.465 236.431 297.113 237.009C296.762 237.581 296.586 238.233 296.586 238.965V249.271H293.301ZM311.844 249.612C310.182 249.612 308.75 249.256 307.548 248.546C306.354 247.828 305.431 246.821 304.78 245.524C304.135 244.221 303.813 242.693 303.813 240.943C303.813 239.214 304.135 237.691 304.78 236.372C305.431 235.054 306.34 234.024 307.504 233.285C308.676 232.545 310.046 232.175 311.614 232.175C312.566 232.175 313.489 232.332 314.382 232.647C315.276 232.962 316.078 233.457 316.789 234.131C317.499 234.805 318.06 235.68 318.47 236.757C318.88 237.826 319.085 239.126 319.085 240.657V241.822H305.67V239.361H315.866C315.866 238.496 315.69 237.731 315.338 237.064C314.987 236.39 314.492 235.859 313.855 235.471C313.225 235.083 312.485 234.889 311.636 234.889C310.713 234.889 309.907 235.116 309.218 235.57C308.537 236.017 308.01 236.603 307.636 237.328C307.27 238.046 307.087 238.826 307.087 239.668V241.591C307.087 242.719 307.285 243.679 307.68 244.47C308.083 245.261 308.643 245.865 309.361 246.283C310.079 246.693 310.918 246.898 311.877 246.898C312.5 246.898 313.068 246.81 313.58 246.634C314.093 246.451 314.536 246.18 314.91 245.821C315.283 245.462 315.569 245.019 315.767 244.492L318.876 245.052C318.627 245.968 318.18 246.77 317.536 247.458C316.899 248.139 316.096 248.67 315.13 249.051C314.17 249.425 313.075 249.612 311.844 249.612Z" fill="#DBB55F"/>
<path d="M80.7458 269.253H82.5288L86.095 275.255H86.2457L89.8118 269.253H91.5949L86.9489 276.812V282.111H85.3918V276.812L80.7458 269.253ZM95.9616 282.312C95.091 282.312 94.3271 282.105 93.6699 281.69C93.017 281.276 92.5063 280.696 92.138 279.951C91.7739 279.206 91.5918 278.336 91.5918 277.34C91.5918 276.335 91.7739 275.458 92.138 274.709C92.5063 273.96 93.017 273.378 93.6699 272.963C94.3271 272.549 95.091 272.342 95.9616 272.342C96.8322 272.342 97.594 272.549 98.2469 272.963C98.9041 273.378 99.4147 273.96 99.7789 274.709C100.147 275.458 100.331 276.335 100.331 277.34C100.331 278.336 100.147 279.206 99.7789 279.951C99.4147 280.696 98.9041 281.276 98.2469 281.69C97.594 282.105 96.8322 282.312 95.9616 282.312ZM95.9616 280.981C96.6229 280.981 97.167 280.812 97.594 280.472C98.0209 280.133 98.3369 279.688 98.542 279.135C98.7471 278.583 98.8497 277.984 98.8497 277.34C98.8497 276.695 98.7471 276.094 98.542 275.538C98.3369 274.981 98.0209 274.531 97.594 274.188C97.167 273.845 96.6229 273.673 95.9616 273.673C95.3003 273.673 94.7561 273.845 94.3292 274.188C93.9023 274.531 93.5862 274.981 93.3811 275.538C93.176 276.094 93.0735 276.695 93.0735 277.34C93.0735 277.984 93.176 278.583 93.3811 279.135C93.5862 279.688 93.9023 280.133 94.3292 280.472C94.7561 280.812 95.3003 280.981 95.9616 280.981ZM108.671 278.168V272.467H110.152V282.111H108.671V280.479H108.57C108.344 280.968 107.993 281.385 107.515 281.728C107.038 282.067 106.436 282.237 105.707 282.237C105.105 282.237 104.569 282.105 104.1 281.841C103.631 281.573 103.263 281.171 102.995 280.636C102.727 280.096 102.593 279.416 102.593 278.595V272.467H104.075V278.495C104.075 279.198 104.272 279.759 104.665 280.177C105.063 280.596 105.569 280.805 106.184 280.805C106.553 280.805 106.927 280.711 107.308 280.523C107.693 280.334 108.016 280.046 108.275 279.656C108.539 279.267 108.671 278.771 108.671 278.168ZM112.866 282.111V272.467H114.298V273.924H114.398C114.574 273.447 114.892 273.06 115.353 272.763C115.813 272.465 116.332 272.317 116.91 272.317C117.018 272.317 117.154 272.319 117.318 272.323C117.481 272.327 117.604 272.334 117.688 272.342V273.849C117.638 273.836 117.523 273.817 117.343 273.792C117.167 273.763 116.981 273.748 116.784 273.748C116.315 273.748 115.897 273.847 115.528 274.043C115.164 274.236 114.875 274.504 114.662 274.847C114.453 275.186 114.348 275.573 114.348 276.008V282.111H112.866ZM124.618 282.111V269.253H126.1V273.999H126.225C126.334 273.832 126.485 273.619 126.677 273.359C126.874 273.095 127.154 272.861 127.519 272.656C127.887 272.447 128.385 272.342 129.013 272.342C129.825 272.342 130.541 272.545 131.16 272.951C131.78 273.357 132.263 273.932 132.61 274.677C132.958 275.423 133.132 276.301 133.132 277.314C133.132 278.336 132.958 279.221 132.61 279.97C132.263 280.715 131.782 281.293 131.166 281.703C130.551 282.109 129.842 282.312 129.038 282.312C128.419 282.312 127.923 282.21 127.55 282.004C127.177 281.795 126.891 281.559 126.69 281.295C126.489 281.027 126.334 280.805 126.225 280.629H126.049V282.111H124.618ZM126.075 277.289C126.075 278.018 126.181 278.66 126.395 279.217C126.608 279.769 126.92 280.202 127.33 280.516C127.74 280.826 128.243 280.981 128.837 280.981C129.457 280.981 129.973 280.818 130.388 280.491C130.806 280.161 131.12 279.717 131.33 279.16C131.543 278.599 131.65 277.976 131.65 277.289C131.65 276.611 131.545 276 131.336 275.456C131.131 274.908 130.819 274.474 130.4 274.156C129.986 273.834 129.465 273.673 128.837 273.673C128.234 273.673 127.728 273.826 127.318 274.131C126.908 274.433 126.598 274.855 126.388 275.399C126.179 275.939 126.075 276.569 126.075 277.289ZM135.398 282.111V272.467H136.88V282.111H135.398ZM136.151 270.86C135.863 270.86 135.614 270.762 135.404 270.565C135.199 270.368 135.097 270.132 135.097 269.856C135.097 269.579 135.199 269.343 135.404 269.146C135.614 268.949 135.863 268.851 136.151 268.851C136.44 268.851 136.687 268.949 136.892 269.146C137.102 269.343 137.206 269.579 137.206 269.856C137.206 270.132 137.102 270.368 136.892 270.565C136.687 270.762 136.44 270.86 136.151 270.86ZM143.511 282.312C142.641 282.312 141.877 282.105 141.22 281.69C140.567 281.276 140.056 280.696 139.688 279.951C139.324 279.206 139.142 278.336 139.142 277.34C139.142 276.335 139.324 275.458 139.688 274.709C140.056 273.96 140.567 273.378 141.22 272.963C141.877 272.549 142.641 272.342 143.511 272.342C144.382 272.342 145.144 272.549 145.797 272.963C146.454 273.378 146.965 273.96 147.329 274.709C147.697 275.458 147.881 276.335 147.881 277.34C147.881 278.336 147.697 279.206 147.329 279.951C146.965 280.696 146.454 281.276 145.797 281.69C145.144 282.105 144.382 282.312 143.511 282.312ZM143.511 280.981C144.173 280.981 144.717 280.812 145.144 280.472C145.571 280.133 145.887 279.688 146.092 279.135C146.297 278.583 146.399 277.984 146.399 277.34C146.399 276.695 146.297 276.094 146.092 275.538C145.887 274.981 145.571 274.531 145.144 274.188C144.717 273.845 144.173 273.673 143.511 273.673C142.85 273.673 142.306 273.845 141.879 274.188C141.452 274.531 141.136 274.981 140.931 275.538C140.726 276.094 140.623 276.695 140.623 277.34C140.623 277.984 140.726 278.583 140.931 279.135C141.136 279.688 141.452 280.133 141.879 280.472C142.306 280.812 142.85 280.981 143.511 280.981Z" fill="#DBB55F" fill-opacity="0.9"/>
<path d="M110.137 106.544C110.137 107.376 109.848 108.181 109.32 108.824C108.793 109.466 108.059 109.905 107.243 110.067C106.428 110.229 105.581 110.103 104.848 109.71C104.116 109.318 103.541 108.684 103.224 107.915C102.906 107.147 102.865 106.292 103.107 105.497C103.35 104.702 103.86 104.015 104.552 103.554C105.244 103.093 106.074 102.886 106.901 102.969C107.728 103.051 108.501 103.418 109.088 104.007C109.421 104.34 109.685 104.736 109.865 105.171C110.045 105.607 110.137 106.073 110.137 106.544Z" fill="url(#paint0_linear_10_180)"/>
<path d="M116.118 116.118C114.862 117.377 113.371 118.375 111.728 119.055C110.086 119.735 108.325 120.085 106.548 120.082V118.057C109.6 118.057 112.527 116.844 114.685 114.687C116.843 112.529 118.057 109.602 118.058 106.55H120.082C120.084 108.328 119.735 110.088 119.055 111.73C118.374 113.372 117.376 114.863 116.118 116.118Z" fill="url(#paint1_linear_10_180)"/>
<path d="M112.982 112.982C112.137 113.828 111.135 114.499 110.03 114.956C108.926 115.414 107.743 115.649 106.548 115.648V113.572C108.41 113.571 110.196 112.83 111.512 111.513C112.829 110.197 113.569 108.411 113.571 106.549H115.646C115.648 107.744 115.413 108.927 114.956 110.031C114.498 111.135 113.828 112.138 112.982 112.982Z" fill="url(#paint2_linear_10_180)"/>
<path d="M95.03 106.55H93.0056C93.0044 104.771 93.3539 103.01 94.034 101.366C94.7141 99.7225 95.7115 98.2291 96.9692 96.9712C98.2268 95.7133 99.7201 94.7156 101.364 94.0352C103.007 93.3547 104.769 93.0049 106.547 93.0057V95.0305C105.034 95.0299 103.536 95.3273 102.138 95.906C100.741 96.4847 99.4706 97.3332 98.4009 98.4031C97.3313 99.473 96.483 100.743 95.9046 102.141C95.3262 103.539 95.029 105.037 95.03 106.55Z" fill="url(#paint3_linear_10_180)"/>
<path d="M99.5159 106.55H97.4399C97.4389 105.354 97.6738 104.169 98.1311 103.063C98.5884 101.957 99.2592 100.953 100.105 100.107C100.951 99.2606 101.955 98.5895 103.061 98.1319C104.166 97.6743 105.351 97.4392 106.548 97.4399V99.5158C105.624 99.5153 104.709 99.697 103.856 100.05C103.002 100.404 102.227 100.922 101.574 101.575C100.921 102.229 100.403 103.004 100.05 103.858C99.6965 104.711 99.5151 105.626 99.5159 106.55Z" fill="url(#paint4_linear_10_180)"/>
</g>
<defs>
<filter id="filter0_d_10_180" x="0" y="0" width="789" height="525.051" filterUnits="userSpaceOnUse" color-interpolation-filters="sRGB">
<feFlood flood-opacity="0" result="BackgroundImageFix"/>
<feColorMatrix in="SourceAlpha" type="matrix" values="0 0 0 0 0 0 0 0 0 0 0 0 0 0 0 0 0 0 127 0" result="hardAlpha"/>
<feOffset dx="10" dy="10"/>
<feGaussianBlur stdDeviation="18.5"/>
<feComposite in2="hardAlpha" operator="out"/>
<feColorMatrix type="matrix" values="0 0 0 0 0 0 0 0 0 0 0 0 0 0 0 0 0 0 0.24 0"/>
<feBlend mode="normal" in2="BackgroundImageFix" result="effect1_dropShadow_10_180"/>
<feBlend mode="normal" in="SourceGraphic" in2="effect1_dropShadow_10_180" result="shape"/>
</filter>
<linearGradient id="paint0_linear_10_180" x1="94.4729" y1="87.5515" x2="121.758" y2="130.486" gradientUnits="userSpaceOnUse">
<stop stop-color="#00AEEF"/>
<stop offset="1" stop-color="#F9ED32"/>
</linearGradient>
<linearGradient id="paint1_linear_10_180" x1="96.2311" y1="86.4341" x2="123.516" y2="129.369" gradientUnits="userSpaceOnUse">
<stop stop-color="#00AEEF"/>
<stop offset="1" stop-color="#F9ED32"/>
</linearGradient>
<linearGradient id="paint2_linear_10_180" x1="95.6552" y1="86.7999" x2="122.94" y2="129.734" gradientUnits="userSpaceOnUse">
<stop stop-color="#00AEEF"/>
<stop offset="1" stop-color="#F9ED32"/>
</linearGradient>
<linearGradient id="paint3_linear_10_180" x1="92.7159" y1="88.6682" x2="120" y2="131.602" gradientUnits="userSpaceOnUse">
<stop stop-color="#00AEEF"/>
<stop offset="1" stop-color="#F9ED32"/>
</linearGradient>
<linearGradient id="paint4_linear_10_180" x1="93.2919" y1="88.3022" x2="120.577" y2="131.236" gradientUnits="userSpaceOnUse">
<stop stop-color="#00AEEF"/>
<stop offset="1" stop-color="#F9ED32"/>
</linearGradient>
<clipPath id="clip0_10_180">
<rect width="172.381" height="172.381" fill="white" transform="translate(517.623 166.231)"/>
</clipPath>
</defs>
</svg>
