<svg width="788" height="525" viewBox="0 0 788 525" fill="none" xmlns="http://www.w3.org/2000/svg">
<g filter="url(#filter0_d_7_38)">
<g clip-path="url(#clip0_7_38)">
<rect x="27" y="27" width="714" height="450.421" rx="23" fill="#001C2C"/>
<path d="M47.3361 136.621C47.1355 134.113 46.195 132.157 44.5148 130.752C42.8596 129.348 40.3392 128.646 36.9535 128.646C34.7968 128.646 33.0287 128.909 31.6494 129.436C30.2952 129.937 29.292 130.627 28.64 131.505C27.9879 132.382 27.6494 133.386 27.6243 134.514C27.5741 135.442 27.7371 136.282 28.1133 137.035C28.5146 137.762 29.1415 138.426 29.9942 139.028C30.8469 139.605 31.9378 140.132 33.267 140.608C34.5961 141.085 36.1761 141.511 38.0068 141.887L44.3267 143.242C48.59 144.144 52.239 145.336 55.2735 146.815C58.308 148.295 60.7908 150.038 62.7219 152.044C64.6529 154.025 66.0699 156.257 66.9727 158.74C67.9006 161.223 68.3771 163.931 68.4022 166.866C68.3771 171.932 67.1106 176.22 64.6028 179.731C62.0949 183.242 58.5086 185.913 53.844 187.744C49.2045 189.574 43.6245 190.49 37.104 190.49C30.408 190.49 24.5647 189.499 19.574 187.518C14.6085 185.537 10.7463 182.49 7.98769 178.377C5.25411 174.239 3.87479 168.947 3.84971 162.502H23.712C23.8374 164.859 24.4267 166.841 25.4801 168.446C26.5334 170.051 28.013 171.267 29.919 172.095C31.85 172.922 34.1447 173.336 36.8031 173.336C39.0351 173.336 40.9034 173.06 42.4081 172.508C43.9129 171.957 45.0539 171.192 45.8314 170.214C46.6088 169.236 47.0101 168.12 47.0352 166.866C47.0101 165.687 46.6214 164.659 45.869 163.781C45.1417 162.878 43.9379 162.076 42.2577 161.373C40.5774 160.646 38.3078 159.969 35.4488 159.342L27.7748 157.687C20.9534 156.207 15.574 153.737 11.6366 150.276C7.72436 146.79 5.78077 142.038 5.80585 136.019C5.78077 131.129 7.08486 126.853 9.71812 123.191C12.3765 119.505 16.0505 116.633 20.7402 114.577C25.455 112.52 30.8594 111.492 36.9535 111.492C43.173 111.492 48.5524 112.533 53.0917 114.614C57.6309 116.696 61.1294 119.63 63.5871 123.417C66.0699 127.179 67.3238 131.58 67.3489 136.621H47.3361ZM150.992 151.066C150.992 159.643 149.325 166.878 145.989 172.772C142.654 178.64 138.152 183.092 132.484 186.126C126.817 189.135 120.497 190.64 113.525 190.64C106.503 190.64 100.158 189.123 94.4903 186.088C88.8476 183.029 84.3585 178.565 81.023 172.696C77.7126 166.803 76.0574 159.593 76.0574 151.066C76.0574 142.489 77.7126 135.267 81.023 129.398C84.3585 123.505 88.8476 119.053 94.4903 116.044C100.158 113.009 106.503 111.492 113.525 111.492C120.497 111.492 126.817 113.009 132.484 116.044C138.152 119.053 142.654 123.505 145.989 129.398C149.325 135.267 150.992 142.489 150.992 151.066ZM129.475 151.066C129.475 146.452 128.861 142.564 127.632 139.405C126.428 136.22 124.635 133.812 122.252 132.182C119.895 130.527 116.986 129.699 113.525 129.699C110.064 129.699 107.142 130.527 104.76 132.182C102.403 133.812 100.609 136.22 99.3806 139.405C98.1768 142.564 97.5749 146.452 97.5749 151.066C97.5749 155.681 98.1768 159.58 99.3806 162.765C100.609 165.925 102.403 168.333 104.76 169.988C107.142 171.618 110.064 172.433 113.525 172.433C116.986 172.433 119.895 171.618 122.252 169.988C124.635 168.333 126.428 165.925 127.632 162.765C128.861 159.58 129.475 155.681 129.475 151.066ZM232.595 141.436H211.379C211.228 139.68 210.827 138.088 210.175 136.658C209.548 135.229 208.67 134 207.542 132.972C206.438 131.919 205.097 131.116 203.517 130.564C201.937 129.987 200.143 129.699 198.137 129.699C194.626 129.699 191.654 130.552 189.222 132.257C186.814 133.962 184.983 136.408 183.73 139.593C182.501 142.778 181.886 146.602 181.886 151.066C181.886 155.781 182.513 159.731 183.767 162.916C185.046 166.076 186.889 168.458 189.297 170.063C191.705 171.643 194.601 172.433 197.987 172.433C199.918 172.433 201.648 172.195 203.178 171.718C204.708 171.217 206.037 170.502 207.166 169.574C208.294 168.646 209.209 167.53 209.912 166.226C210.639 164.897 211.128 163.405 211.379 161.75L232.595 161.9C232.345 165.16 231.429 168.483 229.849 171.869C228.269 175.229 226.025 178.339 223.116 181.198C220.232 184.032 216.658 186.314 212.394 188.045C208.131 189.775 203.178 190.64 197.535 190.64C190.463 190.64 184.118 189.123 178.501 186.088C172.908 183.054 168.482 178.59 165.221 172.696C161.986 166.803 160.369 159.593 160.369 151.066C160.369 142.489 162.024 135.267 165.334 129.398C168.645 123.505 173.109 119.053 178.726 116.044C184.344 113.009 190.614 111.492 197.535 111.492C202.401 111.492 206.877 112.157 210.965 113.486C215.053 114.815 218.639 116.758 221.724 119.317C224.808 121.849 227.291 124.972 229.172 128.683C231.053 132.395 232.194 136.646 232.595 141.436ZM263 112.545V189.587H242.084V112.545H263ZM292.925 189.587H270.354L295.784 112.545H324.374L349.804 189.587H327.233L310.38 133.762H309.778L292.925 189.587ZM288.712 159.192H331.145V174.841H288.712V159.192ZM357.224 189.587V112.545H378.139V172.734H409.287V189.587H357.224ZM417.742 112.545H443.773L461.679 156.182H462.582L480.488 112.545H506.52V189.587H486.056V145.047H485.454L468.3 188.985H455.961L438.808 144.746H438.206V189.587H417.742V112.545ZM516.432 189.587V112.545H571.957V129.398H537.348V142.64H569.098V159.493H537.348V172.734H571.806V189.587H516.432ZM611.973 189.587H582.33V112.545H611.672C619.597 112.545 626.443 114.088 632.211 117.172C638.004 120.232 642.468 124.646 645.603 130.414C648.763 136.157 650.343 143.041 650.343 151.066C650.343 159.091 648.776 165.988 645.641 171.756C642.506 177.499 638.067 181.913 632.324 184.998C626.581 188.057 619.797 189.587 611.973 189.587ZM603.245 171.831H611.22C615.032 171.831 618.28 171.217 620.963 169.988C623.672 168.759 625.728 166.64 627.133 163.631C628.562 160.621 629.277 156.433 629.277 151.066C629.277 145.699 628.55 141.511 627.095 138.502C625.666 135.492 623.559 133.373 620.775 132.144C618.017 130.915 614.631 130.301 610.618 130.301H603.245V171.831ZM680.936 112.545V189.587H660.02V112.545H680.936ZM710.861 189.587H688.29L713.72 112.545H742.31L767.739 189.587H745.169L728.316 133.762H727.714L710.861 189.587ZM706.648 159.192H749.081V174.841H706.648V159.192Z" fill="#002B43"/>
<path d="M47.3361 35.1024C47.1355 32.5945 46.195 30.6384 44.5148 29.2339C42.8596 27.8295 40.3392 27.1273 36.9535 27.1273C34.7968 27.1273 33.0287 27.3907 31.6494 27.9173C30.2952 28.4189 29.292 29.1086 28.64 29.9863C27.9879 30.8641 27.6494 31.8672 27.6243 32.9957C27.5741 33.9237 27.7371 34.7638 28.1133 35.5162C28.5146 36.2434 29.1415 36.908 29.9942 37.5099C30.8469 38.0867 31.9378 38.6134 33.267 39.0899C34.5961 39.5664 36.1761 39.9927 38.0068 40.3689L44.3267 41.7231C48.59 42.626 52.239 43.8172 55.2735 45.2968C58.308 46.7765 60.7908 48.5194 62.7219 50.5257C64.6529 52.5069 66.0699 54.7389 66.9727 57.2217C67.9006 59.7045 68.3771 62.413 68.4022 65.3472C68.3771 70.4131 67.1106 74.7016 64.6028 78.2126C62.0949 81.7236 58.5086 84.3945 53.844 86.2252C49.2045 88.0559 43.6245 88.9713 37.104 88.9713C30.408 88.9713 24.5647 87.9807 19.574 85.9995C14.6085 84.0183 10.7463 80.9712 7.98769 76.8583C5.25411 72.7203 3.87479 67.4287 3.84971 60.9835H23.712C23.8374 63.3409 24.4267 65.3221 25.4801 66.9272C26.5334 68.5322 28.013 69.7485 29.919 70.5761C31.85 71.4037 34.1447 71.8175 36.8031 71.8175C39.0351 71.8175 40.9034 71.5416 42.4081 70.9899C43.9129 70.4382 45.0539 69.6733 45.8314 68.6952C46.6088 67.7172 47.0101 66.6012 47.0352 65.3472C47.0101 64.1685 46.6214 63.1403 45.869 62.2625C45.1417 61.3597 43.9379 60.5572 42.2577 59.855C40.5774 59.1277 38.3078 58.4506 35.4488 57.8236L27.7748 56.1684C20.9534 54.6888 15.574 52.2185 11.6366 48.7577C7.72436 45.2718 5.78077 40.5193 5.80585 34.5005C5.78077 29.6101 7.08486 25.3342 9.71812 21.6727C12.3765 17.9862 16.0505 15.1147 20.7402 13.0582C25.455 11.0018 30.8594 9.97354 36.9535 9.97354C43.173 9.97354 48.5524 11.0143 53.0917 13.0958C57.6309 15.1774 61.1294 18.1116 63.5871 21.8984C66.0699 25.6602 67.3238 30.0615 67.3489 35.1024H47.3361ZM150.992 49.5477C150.992 58.1246 149.325 65.3598 145.989 71.2532C142.654 77.1216 138.152 81.5731 132.484 84.6076C126.817 87.6171 120.497 89.1218 113.525 89.1218C106.503 89.1218 100.158 87.6045 94.4903 84.57C88.8476 81.5104 84.3585 77.0464 81.023 71.178C77.7126 65.2845 76.0574 58.0744 76.0574 49.5477C76.0574 40.9708 77.7126 33.7481 81.023 27.8797C84.3585 21.9862 88.8476 17.5348 94.4903 14.5253C100.158 11.4908 106.503 9.97354 113.525 9.97354C120.497 9.97354 126.817 11.4908 132.484 14.5253C138.152 17.5348 142.654 21.9862 145.989 27.8797C149.325 33.7481 150.992 40.9708 150.992 49.5477ZM129.475 49.5477C129.475 44.9332 128.861 41.046 127.632 37.8861C126.428 34.7011 124.635 32.2935 122.252 30.6634C119.895 29.0082 116.986 28.1806 113.525 28.1806C110.064 28.1806 107.142 29.0082 104.76 30.6634C102.403 32.2935 100.609 34.7011 99.3806 37.8861C98.1768 41.046 97.5749 44.9332 97.5749 49.5477C97.5749 54.1621 98.1768 58.0619 99.3806 61.2469C100.609 64.4068 102.403 66.8143 104.76 68.4695C107.142 70.0996 110.064 70.9147 113.525 70.9147C116.986 70.9147 119.895 70.0996 122.252 68.4695C124.635 66.8143 126.428 64.4068 127.632 61.2469C128.861 58.0619 129.475 54.1621 129.475 49.5477ZM232.595 39.9175H211.379C211.228 38.1619 210.827 36.5695 210.175 35.14C209.548 33.7105 208.67 32.4816 207.542 31.4534C206.438 30.4001 205.097 29.5976 203.517 29.0459C201.937 28.469 200.143 28.1806 198.137 28.1806C194.626 28.1806 191.654 29.0333 189.222 30.7387C186.814 32.444 184.983 34.8892 183.73 38.0742C182.501 41.2592 181.886 45.0837 181.886 49.5477C181.886 54.2625 182.513 58.2123 183.767 61.3973C185.046 64.5572 186.889 66.9397 189.297 68.5447C191.705 70.1247 194.601 70.9147 197.987 70.9147C199.918 70.9147 201.648 70.6764 203.178 70.1999C204.708 69.6984 206.037 68.9836 207.166 68.0557C208.294 67.1278 209.209 66.0118 209.912 64.7077C210.639 63.3785 211.128 61.8864 211.379 60.2312L232.595 60.3816C232.345 63.6419 231.429 66.9648 229.849 70.3504C228.269 73.7109 226.025 76.8207 223.116 79.6797C220.232 82.5136 216.658 84.7957 212.394 86.5261C208.131 88.2566 203.178 89.1218 197.535 89.1218C190.463 89.1218 184.118 87.6045 178.501 84.57C172.908 81.5355 168.482 77.0715 165.221 71.178C161.986 65.2845 160.369 58.0744 160.369 49.5477C160.369 40.9708 162.024 33.7481 165.334 27.8797C168.645 21.9862 173.109 17.5348 178.726 14.5253C184.344 11.4908 190.614 9.97354 197.535 9.97354C202.401 9.97354 206.877 10.6381 210.965 11.9673C215.053 13.2965 218.639 15.2401 221.724 17.7981C224.808 20.331 227.291 23.4533 229.172 27.165C231.053 30.8766 232.194 35.1274 232.595 39.9175ZM263 11.0268V88.0685H242.084V11.0268H263ZM292.925 88.0685H270.354L295.784 11.0268H324.374L349.804 88.0685H327.233L310.38 32.2434H309.778L292.925 88.0685ZM288.712 57.6731H331.145V73.3222H288.712V57.6731ZM357.224 88.0685V11.0268H378.139V71.2156H409.287V88.0685H357.224ZM417.742 11.0268H443.773L461.679 54.6637H462.582L480.488 11.0268H506.52V88.0685H486.056V43.5288H485.454L468.3 87.4666H455.961L438.808 43.2278H438.206V88.0685H417.742V11.0268ZM516.432 88.0685V11.0268H571.957V27.8797H537.348V41.1212H569.098V57.9741H537.348V71.2156H571.806V88.0685H516.432ZM611.973 88.0685H582.33V11.0268H611.672C619.597 11.0268 626.443 12.5692 632.211 15.6539C638.004 18.7134 642.468 23.1273 645.603 28.8954C648.763 34.6384 650.343 41.5225 650.343 49.5477C650.343 57.5728 648.776 64.4695 645.641 70.2376C642.506 75.9806 638.067 80.3944 632.324 83.4791C626.581 86.5387 619.797 88.0685 611.973 88.0685ZM603.245 70.3128H611.22C615.032 70.3128 618.28 69.6984 620.963 68.4695C623.672 67.2407 625.728 65.1215 627.133 62.1121C628.562 59.1026 629.277 54.9145 629.277 49.5477C629.277 44.1808 628.55 39.9927 627.095 36.9833C625.666 33.9738 623.559 31.8547 620.775 30.6258C618.017 29.397 614.631 28.7825 610.618 28.7825H603.245V70.3128ZM680.936 11.0268V88.0685H660.02V11.0268H680.936ZM710.861 88.0685H688.29L713.72 11.0268H742.31L767.739 88.0685H745.169L728.316 32.2434H727.714L710.861 88.0685ZM706.648 57.6731H749.081V73.3222H706.648V57.6731Z" fill="#002B43"/>
<path d="M47.3361 238.139C47.1355 235.631 46.195 233.675 44.5148 232.271C42.8596 230.866 40.3392 230.164 36.9535 230.164C34.7968 230.164 33.0287 230.427 31.6494 230.954C30.2952 231.456 29.292 232.145 28.64 233.023C27.9879 233.901 27.6494 234.904 27.6243 236.032C27.5741 236.96 27.7371 237.801 28.1133 238.553C28.5146 239.28 29.1415 239.945 29.9942 240.547C30.8469 241.123 31.9378 241.65 33.267 242.127C34.5961 242.603 36.1761 243.029 38.0068 243.406L44.3267 244.76C48.59 245.663 52.239 246.854 55.2735 248.334C58.308 249.813 60.7908 251.556 62.7219 253.562C64.6529 255.544 66.0699 257.776 66.9727 260.258C67.9006 262.741 68.3771 265.45 68.4022 268.384C68.3771 273.45 67.1106 277.738 64.6028 281.249C62.0949 284.76 58.5086 287.431 53.844 289.262C49.2045 291.093 43.6245 292.008 37.104 292.008C30.408 292.008 24.5647 291.017 19.574 289.036C14.6085 287.055 10.7463 284.008 7.98769 279.895C5.25411 275.757 3.87479 270.465 3.84971 264.02H23.712C23.8374 266.378 24.4267 268.359 25.4801 269.964C26.5334 271.569 28.013 272.785 29.919 273.613C31.85 274.44 34.1447 274.854 36.8031 274.854C39.0351 274.854 40.9034 274.578 42.4081 274.027C43.9129 273.475 45.0539 272.71 45.8314 271.732C46.6088 270.754 47.0101 269.638 47.0352 268.384C47.0101 267.205 46.6214 266.177 45.869 265.299C45.1417 264.396 43.9379 263.594 42.2577 262.892C40.5774 262.164 38.3078 261.487 35.4488 260.86L27.7748 259.205C20.9534 257.726 15.574 255.255 11.6366 251.794C7.72436 248.308 5.78077 243.556 5.80585 237.537C5.78077 232.647 7.08486 228.371 9.71812 224.709C12.3765 221.023 16.0505 218.151 20.7402 216.095C25.455 214.039 30.8594 213.01 36.9535 213.01C43.173 213.01 48.5524 214.051 53.0917 216.133C57.6309 218.214 61.1294 221.148 63.5871 224.935C66.0699 228.697 67.3238 233.098 67.3489 238.139H47.3361ZM150.992 252.584C150.992 261.161 149.325 268.396 145.989 274.29C142.654 280.158 138.152 284.61 132.484 287.644C126.817 290.654 120.497 292.159 113.525 292.159C106.503 292.159 100.158 290.641 94.4903 287.607C88.8476 284.547 84.3585 280.083 81.023 274.215C77.7126 268.321 76.0574 261.111 76.0574 252.584C76.0574 244.008 77.7126 236.785 81.023 230.916C84.3585 225.023 88.8476 220.571 94.4903 217.562C100.158 214.528 106.503 213.01 113.525 213.01C120.497 213.01 126.817 214.528 132.484 217.562C138.152 220.571 142.654 225.023 145.989 230.916C149.325 236.785 150.992 244.008 150.992 252.584ZM129.475 252.584C129.475 247.97 128.861 244.083 127.632 240.923C126.428 237.738 124.635 235.33 122.252 233.7C119.895 232.045 116.986 231.217 113.525 231.217C110.064 231.217 107.142 232.045 104.76 233.7C102.403 235.33 100.609 237.738 99.3806 240.923C98.1768 244.083 97.5749 247.97 97.5749 252.584C97.5749 257.199 98.1768 261.099 99.3806 264.284C100.609 267.444 102.403 269.851 104.76 271.506C107.142 273.136 110.064 273.951 113.525 273.951C116.986 273.951 119.895 273.136 122.252 271.506C124.635 269.851 126.428 267.444 127.632 264.284C128.861 261.099 129.475 257.199 129.475 252.584ZM232.595 242.954H211.379C211.228 241.199 210.827 239.606 210.175 238.177C209.548 236.747 208.67 235.518 207.542 234.49C206.438 233.437 205.097 232.634 203.517 232.083C201.937 231.506 200.143 231.217 198.137 231.217C194.626 231.217 191.654 232.07 189.222 233.775C186.814 235.481 184.983 237.926 183.73 241.111C182.501 244.296 181.886 248.12 181.886 252.584C181.886 257.299 182.513 261.249 183.767 264.434C185.046 267.594 186.889 269.976 189.297 271.581C191.705 273.161 194.601 273.951 197.987 273.951C199.918 273.951 201.648 273.713 203.178 273.237C204.708 272.735 206.037 272.02 207.166 271.092C208.294 270.165 209.209 269.049 209.912 267.744C210.639 266.415 211.128 264.923 211.379 263.268L232.595 263.418C232.345 266.679 231.429 270.002 229.849 273.387C228.269 276.748 226.025 279.857 223.116 282.716C220.232 285.55 216.658 287.832 212.394 289.563C208.131 291.293 203.178 292.159 197.535 292.159C190.463 292.159 184.118 290.641 178.501 287.607C172.908 284.572 168.482 280.108 165.221 274.215C161.986 268.321 160.369 261.111 160.369 252.584C160.369 244.008 162.024 236.785 165.334 230.916C168.645 225.023 173.109 220.571 178.726 217.562C184.344 214.528 190.614 213.01 197.535 213.01C202.401 213.01 206.877 213.675 210.965 215.004C215.053 216.333 218.639 218.277 221.724 220.835C224.808 223.368 227.291 226.49 229.172 230.202C231.053 233.913 232.194 238.164 232.595 242.954ZM263 214.064V291.105H242.084V214.064H263ZM292.925 291.105H270.354L295.784 214.064H324.374L349.804 291.105H327.233L310.38 235.28H309.778L292.925 291.105ZM288.712 260.71H331.145V276.359H288.712V260.71ZM357.224 291.105V214.064H378.139V274.252H409.287V291.105H357.224ZM417.742 214.064H443.773L461.679 257.7H462.582L480.488 214.064H506.52V291.105H486.056V246.566H485.454L468.3 290.503H455.961L438.808 246.265H438.206V291.105H417.742V214.064ZM516.432 291.105V214.064H571.957V230.916H537.348V244.158H569.098V261.011H537.348V274.252H571.806V291.105H516.432ZM611.973 291.105H582.33V214.064H611.672C619.597 214.064 626.443 215.606 632.211 218.691C638.004 221.75 642.468 226.164 645.603 231.932C648.763 237.675 650.343 244.559 650.343 252.584C650.343 260.61 648.776 267.506 645.641 273.274C642.506 279.017 638.067 283.431 632.324 286.516C626.581 289.575 619.797 291.105 611.973 291.105ZM603.245 273.35H611.22C615.032 273.35 618.28 272.735 620.963 271.506C623.672 270.277 625.728 268.158 627.133 265.149C628.562 262.139 629.277 257.951 629.277 252.584C629.277 247.218 628.55 243.029 627.095 240.02C625.666 237.011 623.559 234.891 620.775 233.663C618.017 232.434 614.631 231.819 610.618 231.819H603.245V273.35ZM680.936 214.064V291.105H660.02V214.064H680.936ZM710.861 291.105H688.29L713.72 214.064H742.31L767.739 291.105H745.169L728.316 235.28H727.714L710.861 291.105ZM706.648 260.71H749.081V276.359H706.648V260.71Z" fill="#002B43"/>
<path d="M47.3361 339.658C47.1355 337.15 46.195 335.194 44.5148 333.789C42.8596 332.385 40.3392 331.683 36.9535 331.683C34.7968 331.683 33.0287 331.946 31.6494 332.472C30.2952 332.974 29.292 333.664 28.64 334.541C27.9879 335.419 27.6494 336.422 27.6243 337.551C27.5741 338.479 27.7371 339.319 28.1133 340.071C28.5146 340.799 29.1415 341.463 29.9942 342.065C30.8469 342.642 31.9378 343.169 33.267 343.645C34.5961 344.122 36.1761 344.548 38.0068 344.924L44.3267 346.278C48.59 347.181 52.239 348.372 55.2735 349.852C58.308 351.332 60.7908 353.075 62.7219 355.081C64.6529 357.062 66.0699 359.294 66.9727 361.777C67.9006 364.26 68.3771 366.968 68.4022 369.902C68.3771 374.968 67.1106 379.257 64.6028 382.768C62.0949 386.279 58.5086 388.95 53.844 390.78C49.2045 392.611 43.6245 393.526 37.104 393.526C30.408 393.526 24.5647 392.536 19.574 390.555C14.6085 388.573 10.7463 385.526 7.98769 381.413C5.25411 377.276 3.87479 371.984 3.84971 365.539H23.712C23.8374 367.896 24.4267 369.877 25.4801 371.482C26.5334 373.087 28.013 374.304 29.919 375.131C31.85 375.959 34.1447 376.373 36.8031 376.373C39.0351 376.373 40.9034 376.097 42.4081 375.545C43.9129 374.993 45.0539 374.228 45.8314 373.25C46.6088 372.272 47.0101 371.156 47.0352 369.902C47.0101 368.724 46.6214 367.695 45.869 366.818C45.1417 365.915 43.9379 365.112 42.2577 364.41C40.5774 363.683 38.3078 363.006 35.4488 362.379L27.7748 360.724C20.9534 359.244 15.574 356.774 11.6366 353.313C7.72436 349.827 5.78077 345.075 5.80585 339.056C5.78077 334.165 7.08486 329.889 9.71812 326.228C12.3765 322.541 16.0505 319.67 20.7402 317.613C25.455 315.557 30.8594 314.529 36.9535 314.529C43.173 314.529 48.5524 315.569 53.0917 317.651C57.6309 319.733 61.1294 322.667 63.5871 326.454C66.0699 330.215 67.3238 334.617 67.3489 339.658H47.3361ZM150.992 354.103C150.992 362.68 149.325 369.915 145.989 375.808C142.654 381.677 138.152 386.128 132.484 389.163C126.817 392.172 120.497 393.677 113.525 393.677C106.503 393.677 100.158 392.16 94.4903 389.125C88.8476 386.066 84.3585 381.602 81.023 375.733C77.7126 369.84 76.0574 362.63 76.0574 354.103C76.0574 345.526 77.7126 338.303 81.023 332.435C84.3585 326.541 88.8476 322.09 94.4903 319.08C100.158 316.046 106.503 314.529 113.525 314.529C120.497 314.529 126.817 316.046 132.484 319.08C138.152 322.09 142.654 326.541 145.989 332.435C149.325 338.303 150.992 345.526 150.992 354.103ZM129.475 354.103C129.475 349.488 128.861 345.601 127.632 342.441C126.428 339.256 124.635 336.849 122.252 335.219C119.895 333.563 116.986 332.736 113.525 332.736C110.064 332.736 107.142 333.563 104.76 335.219C102.403 336.849 100.609 339.256 99.3806 342.441C98.1768 345.601 97.5749 349.488 97.5749 354.103C97.5749 358.717 98.1768 362.617 99.3806 365.802C100.609 368.962 102.403 371.369 104.76 373.025C107.142 374.655 110.064 375.47 113.525 375.47C116.986 375.47 119.895 374.655 122.252 373.025C124.635 371.369 126.428 368.962 127.632 365.802C128.861 362.617 129.475 358.717 129.475 354.103ZM232.595 344.473H211.379C211.228 342.717 210.827 341.125 210.175 339.695C209.548 338.266 208.67 337.037 207.542 336.009C206.438 334.955 205.097 334.153 203.517 333.601C201.937 333.024 200.143 332.736 198.137 332.736C194.626 332.736 191.654 333.588 189.222 335.294C186.814 336.999 184.983 339.444 183.73 342.629C182.501 345.814 181.886 349.639 181.886 354.103C181.886 358.818 182.513 362.768 183.767 365.953C185.046 369.112 186.889 371.495 189.297 373.1C191.705 374.68 194.601 375.47 197.987 375.47C199.918 375.47 201.648 375.232 203.178 374.755C204.708 374.254 206.037 373.539 207.166 372.611C208.294 371.683 209.209 370.567 209.912 369.263C210.639 367.934 211.128 366.442 211.379 364.786L232.595 364.937C232.345 368.197 231.429 371.52 229.849 374.906C228.269 378.266 226.025 381.376 223.116 384.235C220.232 387.069 216.658 389.351 212.394 391.081C208.131 392.812 203.178 393.677 197.535 393.677C190.463 393.677 184.118 392.16 178.501 389.125C172.908 386.091 168.482 381.627 165.221 375.733C161.986 369.84 160.369 362.63 160.369 354.103C160.369 345.526 162.024 338.303 165.334 332.435C168.645 326.541 173.109 322.09 178.726 319.08C184.344 316.046 190.614 314.529 197.535 314.529C202.401 314.529 206.877 315.193 210.965 316.522C215.053 317.852 218.639 319.795 221.724 322.353C224.808 324.886 227.291 328.008 229.172 331.72C231.053 335.432 232.194 339.683 232.595 344.473ZM263 315.582V392.624H242.084V315.582H263ZM292.925 392.624H270.354L295.784 315.582H324.374L349.804 392.624H327.233L310.38 336.799H309.778L292.925 392.624ZM288.712 362.228H331.145V377.877H288.712V362.228ZM357.224 392.624V315.582H378.139V375.771H409.287V392.624H357.224ZM417.742 315.582H443.773L461.679 359.219H462.582L480.488 315.582H506.52V392.624H486.056V348.084H485.454L468.3 392.022H455.961L438.808 347.783H438.206V392.624H417.742V315.582ZM516.432 392.624V315.582H571.957V332.435H537.348V345.676H569.098V362.529H537.348V375.771H571.806V392.624H516.432ZM611.973 392.624H582.33V315.582H611.672C619.597 315.582 626.443 317.124 632.211 320.209C638.004 323.269 642.468 327.682 645.603 333.451C648.763 339.194 650.343 346.078 650.343 354.103C650.343 362.128 648.776 369.025 645.641 374.793C642.506 380.536 638.067 384.95 632.324 388.034C626.581 391.094 619.797 392.624 611.973 392.624ZM603.245 374.868H611.22C615.032 374.868 618.28 374.254 620.963 373.025C623.672 371.796 625.728 369.677 627.133 366.667C628.562 363.658 629.277 359.47 629.277 354.103C629.277 348.736 628.55 344.548 627.095 341.538C625.666 338.529 623.559 336.41 620.775 335.181C618.017 333.952 614.631 333.338 610.618 333.338H603.245V374.868ZM680.936 315.582V392.624H660.02V315.582H680.936ZM710.861 392.624H688.29L713.72 315.582H742.31L767.739 392.624H745.169L728.316 336.799H727.714L710.861 392.624ZM706.648 362.228H749.081V377.877H706.648V362.228Z" fill="#002B43"/>
<path d="M47.3361 441.176C47.1355 438.668 46.195 436.712 44.5148 435.308C42.8596 433.903 40.3392 433.201 36.9535 433.201C34.7968 433.201 33.0287 433.464 31.6494 433.991C30.2952 434.493 29.292 435.182 28.64 436.06C27.9879 436.938 27.6494 437.941 27.6243 439.069C27.5741 439.997 27.7371 440.837 28.1133 441.59C28.5146 442.317 29.1415 442.982 29.9942 443.584C30.8469 444.16 31.9378 444.687 33.267 445.163C34.5961 445.64 36.1761 446.066 38.0068 446.442L44.3267 447.797C48.59 448.7 52.239 449.891 55.2735 451.37C58.308 452.85 60.7908 454.593 62.7219 456.599C64.6529 458.581 66.0699 460.813 66.9727 463.295C67.9006 465.778 68.3771 468.487 68.4022 471.421C68.3771 476.487 67.1106 480.775 64.6028 484.286C62.0949 487.797 58.5086 490.468 53.844 492.299C49.2045 494.13 43.6245 495.045 37.104 495.045C30.408 495.045 24.5647 494.054 19.574 492.073C14.6085 490.092 10.7463 487.045 7.98769 482.932C5.25411 478.794 3.87479 473.502 3.84971 467.057H23.712C23.8374 469.415 24.4267 471.396 25.4801 473.001C26.5334 474.606 28.013 475.822 29.919 476.65C31.85 477.477 34.1447 477.891 36.8031 477.891C39.0351 477.891 40.9034 477.615 42.4081 477.064C43.9129 476.512 45.0539 475.747 45.8314 474.769C46.6088 473.791 47.0101 472.675 47.0352 471.421C47.0101 470.242 46.6214 469.214 45.869 468.336C45.1417 467.433 43.9379 466.631 42.2577 465.929C40.5774 465.201 38.3078 464.524 35.4488 463.897L27.7748 462.242C20.9534 460.762 15.574 458.292 11.6366 454.831C7.72436 451.345 5.78077 446.593 5.80585 440.574C5.78077 435.684 7.08486 431.408 9.71812 427.746C12.3765 424.06 16.0505 421.188 20.7402 419.132C25.455 417.075 30.8594 416.047 36.9535 416.047C43.173 416.047 48.5524 417.088 53.0917 419.169C57.6309 421.251 61.1294 424.185 63.5871 427.972C66.0699 431.734 67.3238 436.135 67.3489 441.176H47.3361ZM150.992 455.621C150.992 464.198 149.325 471.433 145.989 477.327C142.654 483.195 138.152 487.647 132.484 490.681C126.817 493.691 120.497 495.195 113.525 495.195C106.503 495.195 100.158 493.678 94.4903 490.644C88.8476 487.584 84.3585 483.12 81.023 477.252C77.7126 471.358 76.0574 464.148 76.0574 455.621C76.0574 447.044 77.7126 439.822 81.023 433.953C84.3585 428.06 88.8476 423.608 94.4903 420.599C100.158 417.564 106.503 416.047 113.525 416.047C120.497 416.047 126.817 417.564 132.484 420.599C138.152 423.608 142.654 428.06 145.989 433.953C149.325 439.822 150.992 447.044 150.992 455.621ZM129.475 455.621C129.475 451.007 128.861 447.12 127.632 443.96C126.428 440.775 124.635 438.367 122.252 436.737C119.895 435.082 116.986 434.254 113.525 434.254C110.064 434.254 107.142 435.082 104.76 436.737C102.403 438.367 100.609 440.775 99.3806 443.96C98.1768 447.12 97.5749 451.007 97.5749 455.621C97.5749 460.236 98.1768 464.135 99.3806 467.32C100.609 470.48 102.403 472.888 104.76 474.543C107.142 476.173 110.064 476.988 113.525 476.988C116.986 476.988 119.895 476.173 122.252 474.543C124.635 472.888 126.428 470.48 127.632 467.32C128.861 464.135 129.475 460.236 129.475 455.621ZM232.595 445.991H211.379C211.228 444.236 210.827 442.643 210.175 441.214C209.548 439.784 208.67 438.555 207.542 437.527C206.438 436.474 205.097 435.671 203.517 435.119C201.937 434.543 200.143 434.254 198.137 434.254C194.626 434.254 191.654 435.107 189.222 436.812C186.814 438.518 184.983 440.963 183.73 444.148C182.501 447.333 181.886 451.157 181.886 455.621C181.886 460.336 182.513 464.286 183.767 467.471C185.046 470.631 186.889 473.013 189.297 474.618C191.705 476.198 194.601 476.988 197.987 476.988C199.918 476.988 201.648 476.75 203.178 476.274C204.708 475.772 206.037 475.057 207.166 474.129C208.294 473.201 209.209 472.085 209.912 470.781C210.639 469.452 211.128 467.96 211.379 466.305L232.595 466.455C232.345 469.715 231.429 473.038 229.849 476.424C228.269 479.785 226.025 482.894 223.116 485.753C220.232 488.587 216.658 490.869 212.394 492.6C208.131 494.33 203.178 495.195 197.535 495.195C190.463 495.195 184.118 493.678 178.501 490.644C172.908 487.609 168.482 483.145 165.221 477.252C161.986 471.358 160.369 464.148 160.369 455.621C160.369 447.044 162.024 439.822 165.334 433.953C168.645 428.06 173.109 423.608 178.726 420.599C184.344 417.564 190.614 416.047 197.535 416.047C202.401 416.047 206.877 416.712 210.965 418.041C215.053 419.37 218.639 421.314 221.724 423.872C224.808 426.405 227.291 429.527 229.172 433.239C231.053 436.95 232.194 441.201 232.595 445.991ZM263 417.1V494.142H242.084V417.1H263ZM292.925 494.142H270.354L295.784 417.1H324.374L349.804 494.142H327.233L310.38 438.317H309.778L292.925 494.142ZM288.712 463.747H331.145V479.396H288.712V463.747ZM357.224 494.142V417.1H378.139V477.289H409.287V494.142H357.224ZM417.742 417.1H443.773L461.679 460.737H462.582L480.488 417.1H506.52V494.142H486.056V449.602H485.454L468.3 493.54H455.961L438.808 449.301H438.206V494.142H417.742V417.1ZM516.432 494.142V417.1H571.957V433.953H537.348V447.195H569.098V464.048H537.348V477.289H571.806V494.142H516.432ZM611.973 494.142H582.33V417.1H611.672C619.597 417.1 626.443 418.643 632.211 421.727C638.004 424.787 642.468 429.201 645.603 434.969C648.763 440.712 650.343 447.596 650.343 455.621C650.343 463.646 648.776 470.543 645.641 476.311C642.506 482.054 638.067 486.468 632.324 489.553C626.581 492.612 619.797 494.142 611.973 494.142ZM603.245 476.386H611.22C615.032 476.386 618.28 475.772 620.963 474.543C623.672 473.314 625.728 471.195 627.133 468.186C628.562 465.176 629.277 460.988 629.277 455.621C629.277 450.254 628.55 446.066 627.095 443.057C625.666 440.047 623.559 437.928 620.775 436.699C618.017 435.471 614.631 434.856 610.618 434.856H603.245V476.386ZM680.936 417.1V494.142H660.02V417.1H680.936ZM710.861 494.142H688.29L713.72 417.1H742.31L767.739 494.142H745.169L728.316 438.317H727.714L710.861 494.142ZM706.648 463.747H749.081V479.396H706.648V463.747Z" fill="#002B43"/>
<rect x="206" y="206" width="92" height="92" rx="34" fill="url(#paint0_linear_7_38)"/>
<g filter="url(#filter1_d_7_38)">
<path d="M244.545 288H258.296V255.15H269.794L271.531 242.37H258.296V234.18C258.296 230.49 259.375 227.97 264.913 227.97H272V216.495C270.78 216.36 266.603 216 261.722 216C251.491 216 244.545 221.985 244.545 232.92V242.37H233V255.15H244.545V288Z" fill="white"/>
</g>
<rect x="272" y="206" width="92" height="92" rx="34" fill="url(#paint1_linear_7_38)"/>
<g filter="url(#filter2_d_7_38)">
<path d="M348.019 233.774C345.772 234.77 343.388 235.423 340.947 235.713C343.489 234.189 345.442 231.776 346.361 228.901C343.944 230.335 341.299 231.345 338.542 231.889C336.295 229.496 333.095 228 329.554 228C322.753 228 317.24 233.513 317.24 240.313C317.24 241.279 317.349 242.218 317.558 243.12C307.325 242.606 298.252 237.704 292.178 230.254C291.118 232.073 290.511 234.188 290.511 236.444C290.511 240.717 292.685 244.485 295.989 246.694C294.034 246.632 292.121 246.104 290.412 245.153C290.411 245.205 290.411 245.256 290.411 245.308C290.411 251.274 294.655 256.251 300.288 257.382C298.475 257.876 296.573 257.948 294.728 257.593C296.294 262.485 300.842 266.045 306.23 266.145C302.016 269.447 296.706 271.416 290.937 271.416C289.943 271.416 288.963 271.358 288 271.244C293.449 274.738 299.922 276.776 306.876 276.776C329.525 276.776 341.91 258.013 341.91 241.741C341.91 241.207 341.899 240.676 341.875 240.148C344.285 238.406 346.366 236.247 348.019 233.774" fill="white"/>
</g>
<rect x="338" y="206" width="92" height="92" rx="34" fill="url(#paint2_linear_7_38)"/>
<path d="M398.413 240.826C400.202 240.826 401.653 239.376 401.653 237.586C401.653 235.797 400.202 234.346 398.413 234.346C396.623 234.346 395.173 235.797 395.173 237.586C395.173 239.376 396.623 240.826 398.413 240.826Z" fill="white"/>
<path d="M384 238.135C381.258 238.135 378.577 238.949 376.297 240.472C374.017 241.996 372.24 244.161 371.191 246.694C370.141 249.228 369.867 252.015 370.402 254.705C370.937 257.394 372.257 259.865 374.196 261.804C376.135 263.743 378.605 265.063 381.295 265.598C383.984 266.133 386.772 265.858 389.305 264.809C391.839 263.76 394.004 261.983 395.528 259.703C397.051 257.423 397.864 254.742 397.864 252C397.864 248.323 396.404 244.796 393.803 242.196C391.203 239.596 387.677 238.135 384 238.135ZM384 261C382.22 261 380.48 260.472 379 259.483C377.52 258.494 376.366 257.089 375.685 255.444C375.004 253.8 374.825 251.99 375.173 250.244C375.52 248.498 376.377 246.895 377.636 245.636C378.894 244.377 380.498 243.52 382.244 243.173C383.99 242.826 385.799 243.004 387.444 243.685C389.088 244.366 390.494 245.52 391.483 247C392.472 248.48 393 250.22 393 252C393 254.387 392.052 256.676 390.364 258.364C388.676 260.052 386.387 261 384 261Z" fill="white"/>
<g filter="url(#filter3_d_7_38)">
<path d="M384 229.865C391.209 229.865 392.064 229.891 394.91 230.022C396.622 230.042 398.318 230.357 399.923 230.951C401.088 231.401 402.146 232.089 403.029 232.971C403.911 233.854 404.599 234.912 405.049 236.077C405.643 237.682 405.958 239.378 405.978 241.09C406.108 243.936 406.135 244.791 406.135 252.002C406.135 259.213 406.108 260.064 405.978 262.91C405.958 264.622 405.643 266.318 405.049 267.923C404.599 269.088 403.911 270.146 403.029 271.029C402.146 271.911 401.088 272.599 399.923 273.049C398.318 273.643 396.622 273.958 394.91 273.978C392.064 274.108 391.209 274.135 384 274.135C376.791 274.135 375.936 274.108 373.09 273.978C371.378 273.958 369.682 273.643 368.077 273.049C366.912 272.599 365.854 271.911 364.971 271.029C364.089 270.146 363.401 269.088 362.951 267.923C362.357 266.318 362.042 264.622 362.022 262.91C361.891 260.064 361.865 259.209 361.865 252C361.865 244.791 361.891 243.936 362.022 241.09C362.042 239.378 362.357 237.682 362.951 236.077C363.401 234.912 364.089 233.854 364.971 232.971C365.854 232.089 366.912 231.401 368.077 230.951C369.682 230.357 371.378 230.042 373.09 230.022C375.936 229.891 376.791 229.865 384 229.865M384 225C376.667 225 375.747 225.032 372.867 225.162C370.628 225.207 368.412 225.632 366.315 226.418C364.521 227.111 362.892 228.172 361.532 229.532C360.172 230.892 359.111 232.521 358.418 234.315C357.631 236.413 357.207 238.629 357.162 240.869C357.032 243.749 357 244.665 357 252C357 259.335 357.032 260.253 357.162 263.133C357.207 265.372 357.632 267.588 358.418 269.685C359.111 271.479 360.172 273.108 361.532 274.468C362.892 275.828 364.521 276.889 366.315 277.583C368.413 278.369 370.629 278.793 372.869 278.838C375.749 278.968 376.667 279 384 279C391.333 279 392.253 278.968 395.133 278.838C397.373 278.793 399.589 278.369 401.687 277.583C403.481 276.889 405.11 275.828 406.47 274.468C407.83 273.108 408.891 271.479 409.585 269.685C410.37 267.587 410.794 265.371 410.838 263.131C410.968 260.251 411 259.335 411 252C411 244.665 410.968 243.747 410.838 240.867C410.793 238.628 410.368 236.412 409.583 234.315C408.889 232.521 407.828 230.892 406.468 229.532C405.108 228.172 403.479 227.111 401.685 226.418C399.587 225.632 397.371 225.208 395.131 225.164C392.251 225.029 391.335 225 384 225Z" fill="white"/>
</g>
<rect x="404" y="206" width="92" height="92" rx="34" fill="url(#paint3_linear_7_38)"/>
<g filter="url(#filter4_d_7_38)">
<path d="M434.47 236.94C437.491 236.94 439.94 234.491 439.94 231.47C439.94 228.449 437.491 226 434.47 226C431.449 226 429 228.449 429 231.47C429 234.491 431.449 236.94 434.47 236.94Z" fill="white"/>
</g>
<g filter="url(#filter5_d_7_38)">
<path d="M445.105 241.085V271.432H454.527V256.425C454.527 252.465 455.272 248.63 460.182 248.63C465.025 248.63 465.085 253.157 465.085 256.675V271.435H474.513V254.792C474.513 246.617 472.753 240.335 463.198 240.335C458.61 240.335 455.535 242.852 454.277 245.235H454.15V241.085H445.105V241.085ZM429.75 241.085H439.187V271.432H429.75V241.085Z" fill="white"/>
</g>
<rect x="470" y="206" width="92" height="92" rx="34" fill="url(#paint4_linear_7_38)"/>
<g filter="url(#filter6_d_7_38)">
<path d="M516.434 225C518.822 225 526.919 225.669 530.741 234.219C532.019 237.096 531.713 241.986 531.461 245.913L531.455 246.054C531.422 246.492 531.401 246.888 531.383 247.284C531.68 247.442 532.013 247.517 532.349 247.5C533.072 247.461 533.939 247.212 534.842 246.777C535.189 246.605 535.573 246.519 535.961 246.525C536.399 246.525 536.828 246.594 537.188 246.741C538.271 247.101 538.958 247.896 538.958 248.763C538.997 249.846 538.019 250.788 536.033 251.58C535.82 251.649 535.526 251.763 535.205 251.868C534.116 252.195 532.454 252.735 531.986 253.821C531.77 254.364 531.839 255.084 532.28 255.912L532.316 255.951C532.46 256.278 536 264.336 543.878 265.638C544.167 265.685 544.429 265.835 544.615 266.061C544.801 266.287 544.898 266.573 544.889 266.865C544.889 267.045 544.85 267.222 544.781 267.408C544.202 268.779 541.712 269.793 537.191 270.471C537.05 270.69 536.903 271.377 536.795 271.848C536.729 272.28 536.615 272.715 536.474 273.18C536.291 273.834 535.823 274.155 535.136 274.155H535.064C534.627 274.135 534.192 274.076 533.765 273.978C532.756 273.76 531.726 273.652 530.693 273.654C529.973 273.654 529.253 273.69 528.497 273.834C527.048 274.086 525.785 274.953 524.339 275.964C522.278 277.407 519.932 279.072 516.392 279.072C516.248 279.072 516.104 279.036 515.954 279.036H515.597C512.054 279.036 509.744 277.407 507.686 275.928C506.243 274.914 505.016 274.05 503.567 273.795C502.827 273.684 502.08 273.624 501.332 273.615C500.027 273.615 499.019 273.831 498.263 273.975C497.753 274.08 497.321 274.152 496.958 274.152C496.642 274.176 496.327 274.088 496.069 273.903C495.811 273.718 495.627 273.448 495.548 273.141C495.404 272.679 495.335 272.202 495.227 271.773C495.113 271.335 494.972 270.585 494.828 270.399C490.199 269.862 487.709 268.848 487.133 267.441C487.053 267.271 487.008 267.086 487.001 266.898C486.989 266.605 487.086 266.318 487.273 266.092C487.459 265.865 487.722 265.716 488.012 265.671C495.887 264.369 499.427 256.314 499.574 255.975L499.613 255.906C500.048 255.075 500.153 254.346 499.901 253.809C499.433 252.762 497.768 252.222 496.691 251.859C496.404 251.787 496.124 251.69 495.854 251.571C493.184 250.521 492.821 249.327 492.968 248.499C493.184 247.347 494.591 246.588 495.785 246.588C496.136 246.588 496.436 246.657 496.709 246.768C497.72 247.233 498.614 247.491 499.373 247.491C499.762 247.505 500.148 247.417 500.492 247.236L500.369 245.862C500.129 241.941 499.823 237.057 501.11 234.195C504.818 225.687 512.897 225.033 515.282 225.033L516.287 225H516.434Z" fill="white"/>
</g>
</g>
</g>
<defs>
<filter id="filter0_d_7_38" x="0" y="0" width="788" height="524.421" filterUnits="userSpaceOnUse" color-interpolation-filters="sRGB">
<feFlood flood-opacity="0" result="BackgroundImageFix"/>
<feColorMatrix in="SourceAlpha" type="matrix" values="0 0 0 0 0 0 0 0 0 0 0 0 0 0 0 0 0 0 127 0" result="hardAlpha"/>
<feOffset dx="10" dy="10"/>
<feGaussianBlur stdDeviation="18.5"/>
<feComposite in2="hardAlpha" operator="out"/>
<feColorMatrix type="matrix" values="0 0 0 0 0 0 0 0 0 0 0 0 0 0 0 0 0 0 0.24 0"/>
<feBlend mode="normal" in2="BackgroundImageFix" result="effect1_dropShadow_7_38"/>
<feBlend mode="normal" in="SourceGraphic" in2="effect1_dropShadow_7_38" result="shape"/>
</filter>
<filter id="filter1_d_7_38" x="227" y="216" width="47" height="80" filterUnits="userSpaceOnUse" color-interpolation-filters="sRGB">
<feFlood flood-opacity="0" result="BackgroundImageFix"/>
<feColorMatrix in="SourceAlpha" type="matrix" values="0 0 0 0 0 0 0 0 0 0 0 0 0 0 0 0 0 0 127 0" result="hardAlpha"/>
<feOffset dx="-2" dy="4"/>
<feGaussianBlur stdDeviation="2"/>
<feComposite in2="hardAlpha" operator="out"/>
<feColorMatrix type="matrix" values="0 0 0 0 0 0 0 0 0 0 0 0 0 0 0 0 0 0 0.25 0"/>
<feBlend mode="normal" in2="BackgroundImageFix" result="effect1_dropShadow_7_38"/>
<feBlend mode="normal" in="SourceGraphic" in2="effect1_dropShadow_7_38" result="shape"/>
</filter>
<filter id="filter2_d_7_38" x="282" y="228" width="68.019" height="56.7764" filterUnits="userSpaceOnUse" color-interpolation-filters="sRGB">
<feFlood flood-opacity="0" result="BackgroundImageFix"/>
<feColorMatrix in="SourceAlpha" type="matrix" values="0 0 0 0 0 0 0 0 0 0 0 0 0 0 0 0 0 0 127 0" result="hardAlpha"/>
<feOffset dx="-2" dy="4"/>
<feGaussianBlur stdDeviation="2"/>
<feComposite in2="hardAlpha" operator="out"/>
<feColorMatrix type="matrix" values="0 0 0 0 0 0 0 0 0 0 0 0 0 0 0 0 0 0 0.25 0"/>
<feBlend mode="normal" in2="BackgroundImageFix" result="effect1_dropShadow_7_38"/>
<feBlend mode="normal" in="SourceGraphic" in2="effect1_dropShadow_7_38" result="shape"/>
</filter>
<filter id="filter3_d_7_38" x="351" y="225" width="62" height="62" filterUnits="userSpaceOnUse" color-interpolation-filters="sRGB">
<feFlood flood-opacity="0" result="BackgroundImageFix"/>
<feColorMatrix in="SourceAlpha" type="matrix" values="0 0 0 0 0 0 0 0 0 0 0 0 0 0 0 0 0 0 127 0" result="hardAlpha"/>
<feOffset dx="-2" dy="4"/>
<feGaussianBlur stdDeviation="2"/>
<feComposite in2="hardAlpha" operator="out"/>
<feColorMatrix type="matrix" values="0 0 0 0 0 0 0 0 0 0 0 0 0 0 0 0 0 0 0.25 0"/>
<feBlend mode="normal" in2="BackgroundImageFix" result="effect1_dropShadow_7_38"/>
<feBlend mode="normal" in="SourceGraphic" in2="effect1_dropShadow_7_38" result="shape"/>
</filter>
<filter id="filter4_d_7_38" x="423" y="226" width="18.9399" height="18.9399" filterUnits="userSpaceOnUse" color-interpolation-filters="sRGB">
<feFlood flood-opacity="0" result="BackgroundImageFix"/>
<feColorMatrix in="SourceAlpha" type="matrix" values="0 0 0 0 0 0 0 0 0 0 0 0 0 0 0 0 0 0 127 0" result="hardAlpha"/>
<feOffset dx="-2" dy="4"/>
<feGaussianBlur stdDeviation="2"/>
<feComposite in2="hardAlpha" operator="out"/>
<feColorMatrix type="matrix" values="0 0 0 0 0 0 0 0 0 0 0 0 0 0 0 0 0 0 0.25 0"/>
<feBlend mode="normal" in2="BackgroundImageFix" result="effect1_dropShadow_7_38"/>
<feBlend mode="normal" in="SourceGraphic" in2="effect1_dropShadow_7_38" result="shape"/>
</filter>
<filter id="filter5_d_7_38" x="423.75" y="240.335" width="52.7627" height="39.1" filterUnits="userSpaceOnUse" color-interpolation-filters="sRGB">
<feFlood flood-opacity="0" result="BackgroundImageFix"/>
<feColorMatrix in="SourceAlpha" type="matrix" values="0 0 0 0 0 0 0 0 0 0 0 0 0 0 0 0 0 0 127 0" result="hardAlpha"/>
<feOffset dx="-2" dy="4"/>
<feGaussianBlur stdDeviation="2"/>
<feComposite in2="hardAlpha" operator="out"/>
<feColorMatrix type="matrix" values="0 0 0 0 0 0 0 0 0 0 0 0 0 0 0 0 0 0 0.25 0"/>
<feBlend mode="normal" in2="BackgroundImageFix" result="effect1_dropShadow_7_38"/>
<feBlend mode="normal" in="SourceGraphic" in2="effect1_dropShadow_7_38" result="shape"/>
</filter>
<filter id="filter6_d_7_38" x="481" y="225" width="65.8896" height="62.072" filterUnits="userSpaceOnUse" color-interpolation-filters="sRGB">
<feFlood flood-opacity="0" result="BackgroundImageFix"/>
<feColorMatrix in="SourceAlpha" type="matrix" values="0 0 0 0 0 0 0 0 0 0 0 0 0 0 0 0 0 0 127 0" result="hardAlpha"/>
<feOffset dx="-2" dy="4"/>
<feGaussianBlur stdDeviation="2"/>
<feComposite in2="hardAlpha" operator="out"/>
<feColorMatrix type="matrix" values="0 0 0 0 0 0 0 0 0 0 0 0 0 0 0 0 0 0 0.25 0"/>
<feBlend mode="normal" in2="BackgroundImageFix" result="effect1_dropShadow_7_38"/>
<feBlend mode="normal" in="SourceGraphic" in2="effect1_dropShadow_7_38" result="shape"/>
</filter>
<linearGradient id="paint0_linear_7_38" x1="206" y1="223.5" x2="298" y2="280" gradientUnits="userSpaceOnUse">
<stop stop-color="#00B4FF"/>
<stop offset="1" stop-color="#0076E1"/>
</linearGradient>
<linearGradient id="paint1_linear_7_38" x1="272" y1="223.5" x2="364" y2="280" gradientUnits="userSpaceOnUse">
<stop offset="0.072395" stop-color="#00EBF3"/>
<stop offset="1" stop-color="#00B2B9"/>
</linearGradient>
<linearGradient id="paint2_linear_7_38" x1="338" y1="223.5" x2="430" y2="280" gradientUnits="userSpaceOnUse">
<stop offset="0.072395" stop-color="#A91AE7"/>
<stop offset="0.354167" stop-color="#C8008D"/>
<stop offset="0.552083" stop-color="#D50056"/>
<stop offset="0.776042" stop-color="#EB0000"/>
<stop offset="0.979167" stop-color="#FFB800"/>
</linearGradient>
<linearGradient id="paint3_linear_7_38" x1="462.5" y1="225.5" x2="414.5" y2="298" gradientUnits="userSpaceOnUse">
<stop stop-color="#008AD0"/>
<stop offset="1" stop-color="#125885"/>
</linearGradient>
<linearGradient id="paint4_linear_7_38" x1="528.5" y1="225.5" x2="480.5" y2="298" gradientUnits="userSpaceOnUse">
<stop stop-color="#EEE60D"/>
<stop offset="1" stop-color="#DAB108"/>
</linearGradient>
<clipPath id="clip0_7_38">
<rect x="27" y="27" width="714" height="450.421" rx="23" fill="white"/>
</clipPath>
</defs>
</svg>
