<svg width="788" height="525" viewBox="0 0 788 525" fill="none" xmlns="http://www.w3.org/2000/svg">
<g filter="url(#filter0_d_7_25)">
<rect x="27" y="27" width="714" height="450.421" rx="23" fill="#001C2C"/>
<path d="M80.8062 225.115H85.2075L91.916 236.789H92.1919L98.9004 225.115H103.302L93.985 240.714V250.795H90.1229V240.714L80.8062 225.115ZM111.6 251.184C109.794 251.184 108.218 250.77 106.872 249.943C105.526 249.115 104.481 247.957 103.737 246.469C102.993 244.981 102.621 243.242 102.621 241.253C102.621 239.255 102.993 237.508 103.737 236.011C104.481 234.515 105.526 233.353 106.872 232.525C108.218 231.698 109.794 231.284 111.6 231.284C113.405 231.284 114.981 231.698 116.327 232.525C117.673 233.353 118.718 234.515 119.462 236.011C120.206 237.508 120.578 239.255 120.578 241.253C120.578 243.242 120.206 244.981 119.462 246.469C118.718 247.957 117.673 249.115 116.327 249.943C114.981 250.77 113.405 251.184 111.6 251.184ZM111.612 248.037C112.783 248.037 113.752 247.727 114.521 247.109C115.29 246.49 115.859 245.667 116.227 244.638C116.603 243.61 116.791 242.478 116.791 241.24C116.791 240.011 116.603 238.883 116.227 237.855C115.859 236.818 115.29 235.986 114.521 235.359C113.752 234.732 112.783 234.419 111.612 234.419C110.433 234.419 109.455 234.732 108.678 235.359C107.909 235.986 107.336 236.818 106.96 237.855C106.592 238.883 106.408 240.011 106.408 241.24C106.408 242.478 106.592 243.61 106.96 244.638C107.336 245.667 107.909 246.49 108.678 247.109C109.455 247.727 110.433 248.037 111.612 248.037ZM136.964 242.808V231.535H140.725V250.795H137.039V247.46H136.838C136.395 248.488 135.685 249.345 134.707 250.03C133.737 250.708 132.529 251.046 131.083 251.046C129.845 251.046 128.75 250.774 127.797 250.231C126.853 249.679 126.109 248.864 125.565 247.786C125.03 246.707 124.763 245.374 124.763 243.786V231.535H128.512V243.334C128.512 244.647 128.876 245.692 129.603 246.469C130.33 247.247 131.275 247.635 132.437 247.635C133.139 247.635 133.837 247.46 134.531 247.109C135.233 246.758 135.814 246.227 136.274 245.516C136.742 244.806 136.972 243.903 136.964 242.808ZM145.763 250.795V231.535H149.387V234.594H149.588C149.939 233.558 150.557 232.743 151.443 232.149C152.338 231.547 153.349 231.246 154.478 231.246C154.712 231.246 154.988 231.255 155.305 231.272C155.632 231.288 155.886 231.309 156.07 231.334V234.92C155.92 234.879 155.652 234.833 155.268 234.783C154.883 234.724 154.499 234.695 154.114 234.695C153.228 234.695 152.438 234.883 151.744 235.259C151.059 235.627 150.515 236.141 150.114 236.801C149.713 237.453 149.512 238.197 149.512 239.033V250.795H145.763ZM172.409 239.359V250.795H168.66V231.535H172.259V234.67H172.497C172.94 233.65 173.634 232.831 174.578 232.212C175.531 231.593 176.731 231.284 178.177 231.284C179.49 231.284 180.639 231.56 181.626 232.112C182.612 232.655 183.377 233.466 183.92 234.544C184.464 235.623 184.735 236.956 184.735 238.544V250.795H180.986V238.996C180.986 237.6 180.622 236.509 179.895 235.723C179.168 234.929 178.169 234.532 176.898 234.532C176.029 234.532 175.256 234.72 174.578 235.096C173.91 235.472 173.379 236.024 172.986 236.751C172.601 237.47 172.409 238.34 172.409 239.359ZM195.369 251.222C194.148 251.222 193.045 250.996 192.058 250.545C191.072 250.085 190.29 249.42 189.713 248.551C189.145 247.681 188.861 246.616 188.861 245.353C188.861 244.266 189.07 243.372 189.488 242.67C189.906 241.968 190.47 241.412 191.18 241.002C191.891 240.592 192.685 240.283 193.563 240.074C194.441 239.865 195.335 239.706 196.246 239.598C197.4 239.464 198.336 239.355 199.055 239.272C199.774 239.18 200.297 239.033 200.623 238.833C200.949 238.632 201.112 238.306 201.112 237.855V237.767C201.112 236.672 200.802 235.823 200.184 235.221C199.573 234.62 198.662 234.319 197.45 234.319C196.188 234.319 195.193 234.599 194.466 235.159C193.747 235.71 193.249 236.325 192.974 237.002L189.45 236.2C189.868 235.029 190.478 234.085 191.281 233.366C192.092 232.638 193.024 232.112 194.077 231.786C195.13 231.451 196.238 231.284 197.4 231.284C198.169 231.284 198.984 231.376 199.845 231.56C200.715 231.736 201.525 232.062 202.278 232.538C203.039 233.015 203.661 233.696 204.146 234.582C204.631 235.46 204.873 236.601 204.873 238.005V250.795H201.212V248.162H201.061C200.819 248.647 200.455 249.123 199.971 249.592C199.486 250.06 198.863 250.448 198.102 250.758C197.341 251.067 196.43 251.222 195.369 251.222ZM196.184 248.212C197.22 248.212 198.106 248.007 198.842 247.598C199.586 247.188 200.15 246.653 200.535 245.993C200.928 245.324 201.124 244.609 201.124 243.849V241.366C200.99 241.499 200.731 241.625 200.347 241.742C199.971 241.851 199.54 241.947 199.055 242.03C198.57 242.106 198.098 242.177 197.638 242.243C197.178 242.302 196.794 242.352 196.485 242.394C195.757 242.486 195.093 242.641 194.491 242.858C193.897 243.075 193.421 243.389 193.061 243.798C192.71 244.2 192.535 244.735 192.535 245.403C192.535 246.331 192.877 247.033 193.563 247.51C194.248 247.978 195.122 248.212 196.184 248.212ZM209.867 250.795V231.535H213.466V234.67H213.704C214.106 233.608 214.762 232.78 215.673 232.187C216.584 231.585 217.675 231.284 218.946 231.284C220.233 231.284 221.311 231.585 222.181 232.187C223.059 232.789 223.706 233.616 224.124 234.67H224.325C224.785 233.641 225.516 232.822 226.519 232.212C227.523 231.593 228.718 231.284 230.106 231.284C231.853 231.284 233.278 231.832 234.382 232.927C235.493 234.022 236.049 235.673 236.049 237.88V250.795H232.3V238.231C232.3 236.927 231.945 235.982 231.234 235.397C230.524 234.812 229.675 234.519 228.689 234.519C227.468 234.519 226.519 234.895 225.842 235.648C225.165 236.392 224.827 237.349 224.827 238.519V250.795H221.09V237.993C221.09 236.948 220.764 236.108 220.112 235.472C219.46 234.837 218.611 234.519 217.566 234.519C216.856 234.519 216.2 234.707 215.598 235.084C215.004 235.451 214.523 235.965 214.156 236.626C213.796 237.286 213.616 238.051 213.616 238.921V250.795H209.867ZM249.376 251.184C247.478 251.184 245.844 250.779 244.473 249.968C243.11 249.148 242.057 247.999 241.313 246.519C240.577 245.031 240.209 243.288 240.209 241.29C240.209 239.318 240.577 237.579 241.313 236.074C242.057 234.569 243.093 233.395 244.422 232.551C245.76 231.706 247.323 231.284 249.112 231.284C250.199 231.284 251.252 231.464 252.272 231.823C253.292 232.183 254.207 232.747 255.018 233.516C255.829 234.285 256.469 235.284 256.937 236.513C257.405 237.733 257.639 239.217 257.639 240.964V242.294H242.328V239.485H253.965C253.965 238.498 253.764 237.625 253.363 236.864C252.962 236.095 252.397 235.489 251.67 235.046C250.951 234.603 250.107 234.381 249.137 234.381C248.084 234.381 247.164 234.64 246.379 235.159C245.601 235.669 244.999 236.337 244.573 237.165C244.155 237.984 243.946 238.875 243.946 239.836V242.03C243.946 243.318 244.172 244.413 244.623 245.316C245.083 246.218 245.722 246.908 246.542 247.385C247.361 247.853 248.318 248.087 249.413 248.087C250.124 248.087 250.772 247.986 251.357 247.786C251.942 247.577 252.448 247.268 252.874 246.858C253.3 246.448 253.626 245.943 253.852 245.341L257.401 245.98C257.116 247.025 256.607 247.941 255.871 248.726C255.144 249.504 254.228 250.11 253.125 250.545C252.03 250.971 250.78 251.184 249.376 251.184ZM274.893 239.359V250.795H271.144V225.115H274.843V234.67H275.081C275.533 233.633 276.222 232.81 277.15 232.199C278.078 231.589 279.29 231.284 280.787 231.284C282.107 231.284 283.261 231.556 284.247 232.099C285.242 232.643 286.011 233.453 286.555 234.532C287.106 235.602 287.382 236.939 287.382 238.544V250.795H283.633V238.996C283.633 237.583 283.269 236.488 282.542 235.71C281.815 234.925 280.803 234.532 279.508 234.532C278.621 234.532 277.827 234.72 277.125 235.096C276.431 235.472 275.884 236.024 275.482 236.751C275.089 237.47 274.893 238.34 274.893 239.359ZM300.686 251.184C298.789 251.184 297.155 250.779 295.784 249.968C294.421 249.148 293.368 247.999 292.624 246.519C291.888 245.031 291.52 243.288 291.52 241.29C291.52 239.318 291.888 237.579 292.624 236.074C293.368 234.569 294.404 233.395 295.733 232.551C297.071 231.706 298.634 231.284 300.423 231.284C301.51 231.284 302.563 231.464 303.583 231.823C304.603 232.183 305.518 232.747 306.329 233.516C307.14 234.285 307.78 235.284 308.248 236.513C308.716 237.733 308.95 239.217 308.95 240.964V242.294H293.639V239.485H305.276C305.276 238.498 305.075 237.625 304.674 236.864C304.273 236.095 303.708 235.489 302.981 235.046C302.262 234.603 301.418 234.381 300.448 234.381C299.395 234.381 298.475 234.64 297.69 235.159C296.912 235.669 296.31 236.337 295.884 237.165C295.466 237.984 295.257 238.875 295.257 239.836V242.03C295.257 243.318 295.483 244.413 295.934 245.316C296.394 246.218 297.033 246.908 297.853 247.385C298.672 247.853 299.629 248.087 300.724 248.087C301.435 248.087 302.082 247.986 302.668 247.786C303.253 247.577 303.759 247.268 304.185 246.858C304.611 246.448 304.937 245.943 305.163 245.341L308.712 245.98C308.427 247.025 307.917 247.941 307.182 248.726C306.455 249.504 305.539 250.11 304.436 250.545C303.341 250.971 302.091 251.184 300.686 251.184ZM313.11 250.795V231.535H316.734V234.594H316.934C317.285 233.558 317.904 232.743 318.79 232.149C319.685 231.547 320.696 231.246 321.825 231.246C322.059 231.246 322.335 231.255 322.652 231.272C322.978 231.288 323.233 231.309 323.417 231.334V234.92C323.267 234.879 322.999 234.833 322.615 234.783C322.23 234.724 321.846 234.695 321.461 234.695C320.575 234.695 319.785 234.883 319.091 235.259C318.406 235.627 317.862 236.141 317.461 236.801C317.06 237.453 316.859 238.197 316.859 239.033V250.795H313.11ZM334.273 251.184C332.375 251.184 330.741 250.779 329.37 249.968C328.008 249.148 326.954 247.999 326.21 246.519C325.475 245.031 325.107 243.288 325.107 241.29C325.107 239.318 325.475 237.579 326.21 236.074C326.954 234.569 327.991 233.395 329.32 232.551C330.658 231.706 332.221 231.284 334.01 231.284C335.096 231.284 336.15 231.464 337.17 231.823C338.189 232.183 339.105 232.747 339.916 233.516C340.727 234.285 341.366 235.284 341.834 236.513C342.302 237.733 342.536 239.217 342.536 240.964V242.294H327.226V239.485H338.862C338.862 238.498 338.662 237.625 338.261 236.864C337.859 236.095 337.295 235.489 336.568 235.046C335.849 234.603 335.004 234.381 334.035 234.381C332.981 234.381 332.062 234.64 331.276 235.159C330.499 235.669 329.897 236.337 329.47 237.165C329.052 237.984 328.843 238.875 328.843 239.836V242.03C328.843 243.318 329.069 244.413 329.521 245.316C329.98 246.218 330.62 246.908 331.439 247.385C332.258 247.853 333.216 248.087 334.311 248.087C335.021 248.087 335.669 247.986 336.254 247.786C336.839 247.577 337.345 247.268 337.771 246.858C338.198 246.448 338.524 245.943 338.75 245.341L342.298 245.98C342.014 247.025 341.504 247.941 340.768 248.726C340.041 249.504 339.126 250.11 338.022 250.545C336.927 250.971 335.677 251.184 334.273 251.184Z" fill="white"/>
<path d="M80.4175 272.783H82.1981L85.7592 278.776H85.9097L89.4709 272.783H91.2515L86.6119 280.331V285.623H85.057V280.331L80.4175 272.783ZM95.612 285.824C94.7426 285.824 93.9798 285.617 93.3236 285.203C92.6715 284.789 92.1616 284.21 91.7938 283.466C91.4301 282.722 91.2483 281.853 91.2483 280.858C91.2483 279.855 91.4301 278.979 91.7938 278.231C92.1616 277.483 92.6715 276.902 93.3236 276.488C93.9798 276.074 94.7426 275.867 95.612 275.867C96.4814 275.867 97.2421 276.074 97.8942 276.488C98.5504 276.902 99.0603 277.483 99.424 278.231C99.7918 278.979 99.9757 279.855 99.9757 280.858C99.9757 281.853 99.7918 282.722 99.424 283.466C99.0603 284.21 98.5504 284.789 97.8942 285.203C97.2421 285.617 96.4814 285.824 95.612 285.824ZM95.612 284.494C96.2724 284.494 96.8158 284.325 97.2421 283.987C97.6685 283.648 97.984 283.203 98.1888 282.651C98.3937 282.099 98.4961 281.502 98.4961 280.858C98.4961 280.214 98.3937 279.614 98.1888 279.059C97.984 278.503 97.6685 278.053 97.2421 277.711C96.8158 277.368 96.2724 277.196 95.612 277.196C94.9516 277.196 94.4082 277.368 93.9819 277.711C93.5556 278.053 93.24 278.503 93.0352 279.059C92.8304 279.614 92.728 280.214 92.728 280.858C92.728 281.502 92.8304 282.099 93.0352 282.651C93.24 283.203 93.5556 283.648 93.9819 283.987C94.4082 284.325 94.9516 284.494 95.612 284.494ZM108.303 281.686V275.993H109.783V285.623H108.303V283.993H108.203C107.977 284.482 107.626 284.898 107.15 285.24C106.673 285.579 106.071 285.748 105.344 285.748C104.742 285.748 104.207 285.617 103.739 285.353C103.271 285.086 102.903 284.685 102.636 284.15C102.368 283.61 102.234 282.931 102.234 282.112V275.993H103.714V282.012C103.714 282.714 103.91 283.274 104.303 283.692C104.7 284.11 105.206 284.319 105.821 284.319C106.188 284.319 106.562 284.225 106.943 284.037C107.327 283.849 107.649 283.56 107.908 283.171C108.172 282.783 108.303 282.287 108.303 281.686ZM118.838 282.112L118.813 280.281H119.114L123.327 275.993H125.158L120.669 280.532H120.543L118.838 282.112ZM117.459 285.623V272.783H118.938V285.623H117.459ZM123.578 285.623L119.816 280.858L120.869 279.83L125.459 285.623H123.578ZM128.542 279.83V285.623H127.062V275.993H128.492V277.497H128.617C128.843 277.008 129.186 276.616 129.645 276.319C130.105 276.018 130.699 275.867 131.426 275.867C132.078 275.867 132.648 276.001 133.138 276.269C133.627 276.532 134.007 276.933 134.279 277.472C134.55 278.007 134.686 278.684 134.686 279.504V285.623H133.206V279.604C133.206 278.848 133.01 278.258 132.617 277.836C132.224 277.41 131.685 277.196 131 277.196C130.527 277.196 130.105 277.299 129.733 277.504C129.365 277.709 129.075 278.007 128.862 278.4C128.648 278.793 128.542 279.27 128.542 279.83ZM141.302 285.824C140.433 285.824 139.67 285.617 139.014 285.203C138.362 284.789 137.852 284.21 137.484 283.466C137.12 282.722 136.938 281.853 136.938 280.858C136.938 279.855 137.12 278.979 137.484 278.231C137.852 277.483 138.362 276.902 139.014 276.488C139.67 276.074 140.433 275.867 141.302 275.867C142.172 275.867 142.932 276.074 143.584 276.488C144.241 276.902 144.751 277.483 145.114 278.231C145.482 278.979 145.666 279.855 145.666 280.858C145.666 281.853 145.482 282.722 145.114 283.466C144.751 284.21 144.241 284.789 143.584 285.203C142.932 285.617 142.172 285.824 141.302 285.824ZM141.302 284.494C141.963 284.494 142.506 284.325 142.932 283.987C143.359 283.648 143.674 283.203 143.879 282.651C144.084 282.099 144.186 281.502 144.186 280.858C144.186 280.214 144.084 279.614 143.879 279.059C143.674 278.503 143.359 278.053 142.932 277.711C142.506 277.368 141.963 277.196 141.302 277.196C140.642 277.196 140.098 277.368 139.672 277.711C139.246 278.053 138.93 278.503 138.725 279.059C138.521 279.614 138.418 280.214 138.418 280.858C138.418 281.502 138.521 282.099 138.725 282.651C138.93 283.203 139.246 283.648 139.672 283.987C140.098 284.325 140.642 284.494 141.302 284.494ZM149.779 285.623L146.845 275.993H148.399L150.481 283.366H150.581L152.638 275.993H154.218L156.249 283.341H156.349L158.431 275.993H159.986L157.052 285.623H155.597L153.49 278.225H153.34L151.233 285.623H149.779ZM169.089 285.623L166.155 275.993H167.71L169.792 283.366H169.892L171.948 275.993H173.528L175.56 283.341H175.66L177.741 275.993H179.296L176.362 285.623H174.908L172.801 278.225H172.65L170.544 285.623H169.089ZM182.732 279.83V285.623H181.252V272.783H182.732V277.497H182.858C183.083 277 183.422 276.605 183.873 276.312C184.329 276.016 184.935 275.867 185.691 275.867C186.348 275.867 186.922 275.999 187.416 276.262C187.909 276.521 188.291 276.921 188.563 277.46C188.839 277.995 188.977 278.676 188.977 279.504V285.623H187.497V279.604C187.497 278.839 187.299 278.248 186.901 277.83C186.509 277.408 185.963 277.196 185.265 277.196C184.78 277.196 184.346 277.299 183.961 277.504C183.581 277.709 183.28 278.007 183.058 278.4C182.841 278.793 182.732 279.27 182.732 279.83ZM195.721 285.824C194.793 285.824 193.993 285.619 193.32 285.209C192.651 284.795 192.135 284.219 191.771 283.479C191.412 282.735 191.232 281.869 191.232 280.883C191.232 279.897 191.412 279.027 191.771 278.275C192.135 277.518 192.641 276.929 193.289 276.507C193.941 276.08 194.701 275.867 195.571 275.867C196.072 275.867 196.568 275.951 197.057 276.118C197.546 276.285 197.991 276.557 198.392 276.933C198.793 277.305 199.113 277.798 199.351 278.413C199.59 279.027 199.709 279.784 199.709 280.682V281.309H192.286V280.03H198.204C198.204 279.487 198.095 279.002 197.878 278.576C197.665 278.149 197.36 277.813 196.963 277.566C196.57 277.32 196.106 277.196 195.571 277.196C194.981 277.196 194.472 277.343 194.041 277.635C193.615 277.924 193.287 278.3 193.057 278.764C192.827 279.228 192.712 279.725 192.712 280.256V281.109C192.712 281.836 192.837 282.453 193.088 282.958C193.343 283.46 193.696 283.842 194.148 284.106C194.599 284.365 195.124 284.494 195.721 284.494C196.11 284.494 196.461 284.44 196.775 284.331C197.092 284.219 197.366 284.051 197.596 283.83C197.826 283.604 198.003 283.324 198.129 282.99L199.558 283.391C199.408 283.876 199.155 284.302 198.8 284.67C198.444 285.034 198.006 285.318 197.483 285.523C196.961 285.723 196.373 285.824 195.721 285.824ZM201.96 285.623V275.993H203.389V277.447H203.489C203.665 276.971 203.983 276.584 204.442 276.287C204.902 275.991 205.42 275.842 205.997 275.842C206.106 275.842 206.242 275.844 206.405 275.849C206.568 275.853 206.691 275.859 206.775 275.867V277.372C206.725 277.36 206.61 277.341 206.43 277.316C206.254 277.286 206.068 277.272 205.872 277.272C205.404 277.272 204.986 277.37 204.618 277.566C204.254 277.759 203.966 278.026 203.753 278.369C203.544 278.707 203.439 279.094 203.439 279.529V285.623H201.96ZM212.273 285.824C211.345 285.824 210.545 285.619 209.872 285.209C209.203 284.795 208.687 284.219 208.323 283.479C207.964 282.735 207.784 281.869 207.784 280.883C207.784 279.897 207.964 279.027 208.323 278.275C208.687 277.518 209.193 276.929 209.841 276.507C210.493 276.08 211.253 275.867 212.123 275.867C212.624 275.867 213.12 275.951 213.609 276.118C214.098 276.285 214.543 276.557 214.944 276.933C215.345 277.305 215.665 277.798 215.903 278.413C216.142 279.027 216.261 279.784 216.261 280.682V281.309H208.837V280.03H214.756C214.756 279.487 214.647 279.002 214.43 278.576C214.217 278.149 213.912 277.813 213.515 277.566C213.122 277.32 212.658 277.196 212.123 277.196C211.533 277.196 211.023 277.343 210.593 277.635C210.167 277.924 209.838 278.3 209.609 278.764C209.379 279.228 209.264 279.725 209.264 280.256V281.109C209.264 281.836 209.389 282.453 209.64 282.958C209.895 283.46 210.248 283.842 210.7 284.106C211.151 284.365 211.675 284.494 212.273 284.494C212.662 284.494 213.013 284.44 213.327 284.331C213.644 284.219 213.918 284.051 214.148 283.83C214.378 283.604 214.555 283.324 214.681 282.99L216.11 283.391C215.96 283.876 215.707 284.302 215.352 284.67C214.996 285.034 214.557 285.318 214.035 285.523C213.513 285.723 212.925 285.824 212.273 285.824ZM227.665 275.993V277.247H222.675V275.993H227.665ZM224.129 273.685H225.609V282.864C225.609 283.282 225.669 283.596 225.791 283.805C225.916 284.01 226.075 284.147 226.267 284.219C226.464 284.285 226.67 284.319 226.888 284.319C227.051 284.319 227.185 284.31 227.289 284.294C227.394 284.273 227.477 284.256 227.54 284.244L227.841 285.573C227.74 285.61 227.6 285.648 227.421 285.686C227.241 285.727 227.013 285.748 226.737 285.748C226.319 285.748 225.91 285.658 225.508 285.479C225.111 285.299 224.781 285.025 224.518 284.657C224.259 284.29 224.129 283.826 224.129 283.266V273.685ZM233.7 285.824C232.83 285.824 232.068 285.617 231.411 285.203C230.759 284.789 230.249 284.21 229.882 283.466C229.518 282.722 229.336 281.853 229.336 280.858C229.336 279.855 229.518 278.979 229.882 278.231C230.249 277.483 230.759 276.902 231.411 276.488C232.068 276.074 232.83 275.867 233.7 275.867C234.569 275.867 235.33 276.074 235.982 276.488C236.638 276.902 237.148 277.483 237.512 278.231C237.88 278.979 238.063 279.855 238.063 280.858C238.063 281.853 237.88 282.722 237.512 283.466C237.148 284.21 236.638 284.789 235.982 285.203C235.33 285.617 234.569 285.824 233.7 285.824ZM233.7 284.494C234.36 284.494 234.904 284.325 235.33 283.987C235.756 283.648 236.072 283.203 236.277 282.651C236.481 282.099 236.584 281.502 236.584 280.858C236.584 280.214 236.481 279.614 236.277 279.059C236.072 278.503 235.756 278.053 235.33 277.711C234.904 277.368 234.36 277.196 233.7 277.196C233.039 277.196 232.496 277.368 232.07 277.711C231.643 278.053 231.328 278.503 231.123 279.059C230.918 279.614 230.816 280.214 230.816 280.858C230.816 281.502 230.918 282.099 231.123 282.651C231.328 283.203 231.643 283.648 232.07 283.987C232.496 284.325 233.039 284.494 233.7 284.494ZM249.576 275.993V277.247H244.385V275.993H249.576ZM245.94 285.623V274.664C245.94 274.112 246.069 273.652 246.328 273.284C246.588 272.916 246.924 272.641 247.338 272.457C247.752 272.273 248.188 272.181 248.648 272.181C249.012 272.181 249.309 272.21 249.539 272.269C249.768 272.327 249.94 272.381 250.053 272.432L249.626 273.711C249.551 273.685 249.447 273.654 249.313 273.617C249.183 273.579 249.012 273.56 248.799 273.56C248.31 273.56 247.956 273.683 247.739 273.93C247.526 274.177 247.419 274.538 247.419 275.015V285.623H245.94ZM251.65 285.623V275.993H253.129V285.623H251.65ZM252.402 274.388C252.114 274.388 251.865 274.289 251.656 274.093C251.451 273.897 251.349 273.66 251.349 273.385C251.349 273.109 251.451 272.873 251.656 272.676C251.865 272.48 252.114 272.381 252.402 272.381C252.691 272.381 252.937 272.48 253.142 272.676C253.351 272.873 253.455 273.109 253.455 273.385C253.455 273.66 253.351 273.897 253.142 274.093C252.937 274.289 252.691 274.388 252.402 274.388ZM257.319 279.83V285.623H255.84V275.993H257.269V277.497H257.394C257.62 277.008 257.963 276.616 258.423 276.319C258.882 276.018 259.476 275.867 260.203 275.867C260.855 275.867 261.426 276.001 261.915 276.269C262.404 276.532 262.784 276.933 263.056 277.472C263.328 278.007 263.463 278.684 263.463 279.504V285.623H261.984V279.604C261.984 278.848 261.787 278.258 261.394 277.836C261.002 277.41 260.462 277.196 259.777 277.196C259.305 277.196 258.882 277.299 258.51 277.504C258.143 277.709 257.852 278.007 257.639 278.4C257.426 278.793 257.319 279.27 257.319 279.83ZM269.804 285.824C269.001 285.824 268.293 285.621 267.678 285.215C267.064 284.806 266.583 284.229 266.236 283.485C265.889 282.737 265.716 281.853 265.716 280.833C265.716 279.821 265.889 278.944 266.236 278.2C266.583 277.456 267.066 276.881 267.684 276.475C268.303 276.07 269.018 275.867 269.829 275.867C270.456 275.867 270.951 275.972 271.315 276.181C271.682 276.386 271.962 276.62 272.155 276.883C272.351 277.142 272.504 277.355 272.612 277.523H272.738V272.783H274.217V285.623H272.788V284.143H272.612C272.504 284.319 272.349 284.54 272.148 284.808C271.948 285.071 271.662 285.307 271.29 285.516C270.918 285.721 270.422 285.824 269.804 285.824ZM270.004 284.494C270.598 284.494 271.099 284.34 271.509 284.03C271.919 283.717 272.23 283.284 272.443 282.733C272.656 282.177 272.763 281.535 272.763 280.808C272.763 280.089 272.658 279.46 272.449 278.921C272.24 278.377 271.931 277.955 271.522 277.654C271.112 277.349 270.606 277.196 270.004 277.196C269.377 277.196 268.855 277.357 268.437 277.679C268.023 277.997 267.712 278.43 267.503 278.977C267.298 279.52 267.195 280.131 267.195 280.808C267.195 281.493 267.3 282.116 267.509 282.676C267.722 283.232 268.036 283.675 268.449 284.005C268.867 284.331 269.386 284.494 270.004 284.494ZM286.287 275.993V277.247H281.296V275.993H286.287ZM282.75 273.685H284.23V282.864C284.23 283.282 284.291 283.596 284.412 283.805C284.537 284.01 284.696 284.147 284.888 284.219C285.085 284.285 285.292 284.319 285.509 284.319C285.672 284.319 285.806 284.31 285.91 284.294C286.015 284.273 286.098 284.256 286.161 284.244L286.462 285.573C286.362 285.61 286.222 285.648 286.042 285.686C285.862 285.727 285.635 285.748 285.359 285.748C284.941 285.748 284.531 285.658 284.13 285.479C283.733 285.299 283.403 285.025 283.139 284.657C282.88 284.29 282.75 283.826 282.75 283.266V273.685ZM290.199 279.83V285.623H288.719V272.783H290.199V277.497H290.324C290.55 277 290.889 276.605 291.34 276.312C291.796 276.016 292.402 275.867 293.158 275.867C293.814 275.867 294.389 275.999 294.882 276.262C295.376 276.521 295.758 276.921 296.03 277.46C296.306 277.995 296.443 278.676 296.443 279.504V285.623H294.964V279.604C294.964 278.839 294.765 278.248 294.368 277.83C293.975 277.408 293.43 277.196 292.732 277.196C292.247 277.196 291.812 277.299 291.428 277.504C291.047 277.709 290.746 278.007 290.525 278.4C290.308 278.793 290.199 279.27 290.199 279.83ZM303.188 285.824C302.26 285.824 301.46 285.619 300.787 285.209C300.118 284.795 299.602 284.219 299.238 283.479C298.879 282.735 298.699 281.869 298.699 280.883C298.699 279.897 298.879 279.027 299.238 278.275C299.602 277.518 300.108 276.929 300.755 276.507C301.407 276.08 302.168 275.867 303.038 275.867C303.539 275.867 304.034 275.951 304.523 276.118C305.012 276.285 305.458 276.557 305.859 276.933C306.26 277.305 306.58 277.798 306.818 278.413C307.056 279.027 307.176 279.784 307.176 280.682V281.309H299.752V280.03H305.671C305.671 279.487 305.562 279.002 305.345 278.576C305.132 278.149 304.826 277.813 304.429 277.566C304.037 277.32 303.573 277.196 303.038 277.196C302.448 277.196 301.938 277.343 301.508 277.635C301.081 277.924 300.753 278.3 300.523 278.764C300.294 279.228 300.179 279.725 300.179 280.256V281.109C300.179 281.836 300.304 282.453 300.555 282.958C300.81 283.46 301.163 283.842 301.614 284.106C302.066 284.365 302.59 284.494 303.188 284.494C303.577 284.494 303.928 284.44 304.241 284.331C304.559 284.219 304.833 284.051 305.063 283.83C305.293 283.604 305.47 283.324 305.596 282.99L307.025 283.391C306.875 283.876 306.622 284.302 306.266 284.67C305.911 285.034 305.472 285.318 304.95 285.523C304.427 285.723 303.84 285.824 303.188 285.824ZM309.426 285.623V275.993H310.856V277.497H310.981C311.182 276.983 311.506 276.584 311.953 276.3C312.4 276.012 312.937 275.867 313.564 275.867C314.2 275.867 314.728 276.012 315.151 276.3C315.577 276.584 315.909 276.983 316.147 277.497H316.248C316.494 277 316.864 276.605 317.357 276.312C317.851 276.016 318.442 275.867 319.132 275.867C319.993 275.867 320.697 276.137 321.245 276.676C321.792 277.211 322.066 278.045 322.066 279.178V285.623H320.586V279.178C320.586 278.467 320.392 277.959 320.003 277.654C319.615 277.349 319.157 277.196 318.63 277.196C317.953 277.196 317.429 277.401 317.057 277.811C316.685 278.216 316.499 278.73 316.499 279.353V285.623H314.994V279.027C314.994 278.48 314.816 278.039 314.461 277.704C314.106 277.366 313.648 277.196 313.088 277.196C312.703 277.196 312.344 277.299 312.009 277.504C311.679 277.709 311.412 277.993 311.207 278.356C311.006 278.716 310.906 279.132 310.906 279.604V285.623H309.426Z" fill="#797979"/>
<path d="M110.02 106.433C110.02 107.263 109.732 108.068 109.205 108.709C108.678 109.351 107.945 109.79 107.131 109.951C106.316 110.113 105.471 109.987 104.739 109.595C104.007 109.203 103.434 108.569 103.117 107.802C102.8 107.035 102.759 106.181 103.001 105.387C103.243 104.593 103.752 103.907 104.443 103.447C105.134 102.987 105.963 102.78 106.789 102.862C107.615 102.945 108.387 103.311 108.973 103.899C109.306 104.232 109.569 104.627 109.749 105.062C109.929 105.497 110.021 105.963 110.02 106.433Z" fill="url(#paint0_linear_7_25)"/>
<path d="M115.993 115.994C114.739 117.25 113.25 118.247 111.61 118.927C109.97 119.606 108.211 119.955 106.436 119.952V117.93C109.484 117.93 112.407 116.719 114.562 114.564C116.718 112.409 117.929 109.487 117.931 106.439H119.952C119.954 108.214 119.605 109.972 118.926 111.611C118.246 113.251 117.25 114.74 115.993 115.994Z" fill="url(#paint1_linear_7_25)"/>
<path d="M112.861 112.862C112.018 113.707 111.017 114.377 109.914 114.834C108.812 115.291 107.63 115.525 106.437 115.524V113.451C108.296 113.45 110.079 112.71 111.394 111.395C112.709 110.081 113.448 108.298 113.45 106.438H115.522C115.524 107.631 115.289 108.813 114.833 109.916C114.376 111.018 113.706 112.019 112.861 112.862Z" fill="url(#paint2_linear_7_25)"/>
<path d="M94.9349 106.439H92.9133C92.9122 104.663 93.2611 102.904 93.9403 101.262C94.6194 99.621 95.6154 98.1297 96.8713 96.8735C98.1272 95.6174 99.6184 94.6211 101.26 93.9416C102.901 93.2621 104.66 92.9128 106.436 92.9136V94.9356C104.925 94.9349 103.429 95.232 102.033 95.8098C100.638 96.3878 99.3693 97.2351 98.3011 98.3035C97.2329 99.3718 96.3859 100.64 95.8082 102.036C95.2307 103.432 94.9339 104.928 94.9349 106.439Z" fill="url(#paint3_linear_7_25)"/>
<path d="M99.4141 106.439H97.3411C97.34 105.244 97.5746 104.061 98.0312 102.957C98.4879 101.853 99.1578 100.849 100.003 100.004C100.847 99.1595 101.85 98.4894 102.954 98.0324C104.058 97.5754 105.241 97.3406 106.436 97.3413V99.4143C105.514 99.4139 104.6 99.5953 103.748 99.9482C102.896 100.301 102.121 100.818 101.469 101.471C100.817 102.123 100.3 102.898 99.947 103.75C99.5944 104.603 99.4134 105.516 99.4141 106.439Z" fill="url(#paint4_linear_7_25)"/>
<g clip-path="url(#clip0_7_25)">
<path d="M530.178 172.657H689.077V331.555H530.178V172.657Z" fill="white"/>
<path d="M547.356 191.982H577.418ZM611.775 191.982H620.364ZM624.658 191.982H637.542ZM641.837 191.982H671.898ZM547.356 196.277H551.651ZM573.124 196.277H577.418ZM586.007 196.277H603.186ZM624.658 196.277H628.953ZM633.247 196.277H637.542ZM641.837 196.277H646.131ZM667.604 196.277H671.898ZM547.356 200.572H551.651ZM555.946 200.572H568.829ZM573.124 200.572H577.418ZM581.713 200.572H586.007ZM590.302 200.572H594.596ZM607.48 200.572H611.775ZM616.069 200.572H620.364ZM628.953 200.572H637.542ZM641.837 200.572H646.131ZM650.426 200.572H663.309ZM667.604 200.572H671.898ZM547.356 204.866H551.651ZM555.946 204.866H568.829ZM573.124 204.866H577.418ZM581.713 204.866H586.007ZM590.302 204.866H603.186ZM616.069 204.866H624.658ZM628.953 204.866H633.247ZM641.837 204.866H646.131ZM650.426 204.866H663.309ZM667.604 204.866H671.898ZM547.356 209.161H551.651ZM555.946 209.161H568.829ZM573.124 209.161H577.418ZM581.713 209.161H586.007ZM590.302 209.161H598.891ZM603.186 209.161H616.069ZM620.364 209.161H624.658ZM628.953 209.161H633.247ZM641.837 209.161H646.131ZM650.426 209.161H663.309ZM667.604 209.161H671.898ZM547.356 213.455H551.651ZM573.124 213.455H577.418ZM581.713 213.455H590.302ZM594.596 213.455H628.953ZM633.247 213.455H637.542ZM641.837 213.455H646.131ZM667.604 213.455H671.898ZM547.356 217.75H577.418ZM581.713 217.75H586.007ZM590.302 217.75H594.596ZM598.891 217.75H603.186ZM607.48 217.75H611.775ZM616.069 217.75H620.364ZM624.658 217.75H628.953ZM633.247 217.75H637.542ZM641.837 217.75H671.898ZM581.713 222.044H586.007ZM598.891 222.044H607.48ZM611.775 222.044H616.069ZM624.658 222.044H628.953ZM633.247 222.044H637.542ZM547.356 226.339H551.651ZM555.946 226.339H577.418ZM594.596 226.339H603.186ZM607.48 226.339H616.069ZM620.364 226.339H624.658ZM628.953 226.339H633.247ZM641.837 226.339H663.309ZM581.713 230.633H586.007ZM590.302 230.633H594.596ZM611.775 230.633H654.72ZM667.604 230.633H671.898ZM555.946 234.928H577.418ZM586.007 234.928H590.302ZM633.247 234.928H641.837ZM650.426 234.928H654.72ZM568.829 239.222H573.124ZM590.302 239.222H594.596ZM598.891 239.222H603.186ZM607.48 239.222H611.775ZM616.069 239.222H620.364ZM624.658 239.222H637.542ZM646.131 239.222H659.015ZM663.309 239.222H667.604ZM547.356 243.517H560.24ZM564.535 243.517H581.713ZM586.007 243.517H598.891ZM616.069 243.517H624.658ZM628.953 243.517H633.247ZM646.131 243.517H650.426ZM654.72 243.517H663.309ZM551.651 247.812H560.24ZM564.535 247.812H573.124ZM590.302 247.812H594.596ZM603.186 247.812H616.069ZM620.364 247.812H654.72ZM667.604 247.812H671.898ZM547.356 252.106H551.651ZM555.946 252.106H581.713ZM586.007 252.106H590.302ZM594.596 252.106H598.891ZM603.186 252.106H620.364ZM624.658 252.106H628.953ZM633.247 252.106H637.542ZM646.131 252.106H650.426ZM654.72 252.106H663.309ZM547.356 256.401H551.651ZM555.946 256.401H564.535ZM586.007 256.401H594.596ZM598.891 256.401H607.48ZM611.775 256.401H616.069ZM628.953 256.401H633.247ZM641.837 256.401H646.131ZM650.426 256.401H654.72ZM663.309 256.401H667.604ZM560.24 260.695H564.535ZM573.124 260.695H577.418ZM581.713 260.695H598.891ZM607.48 260.695H616.069ZM620.364 260.695H624.658ZM646.131 260.695H650.426ZM654.72 260.695H663.309ZM547.356 264.99H555.946ZM564.535 264.99H573.124ZM577.418 264.99H590.302ZM594.596 264.99H603.186ZM611.775 264.99H620.364ZM624.658 264.99H637.542ZM641.837 264.99H654.72ZM659.015 264.99H663.309ZM667.604 264.99H671.898ZM547.356 269.284H551.651ZM555.946 269.284H568.829ZM573.124 269.284H577.418ZM620.364 269.284H628.953ZM637.542 269.284H641.837ZM659.015 269.284H663.309ZM547.356 273.579H551.651ZM586.007 273.579H590.302ZM598.891 273.579H603.186ZM607.48 273.579H611.775ZM616.069 273.579H620.364ZM624.658 273.579H650.426ZM663.309 273.579H667.604ZM547.356 277.873H551.651ZM555.946 277.873H560.24ZM564.535 277.873H568.829ZM573.124 277.873H581.713ZM586.007 277.873H594.596ZM598.891 277.873H603.186ZM620.364 277.873H624.658ZM628.953 277.873H654.72ZM659.015 277.873H671.898ZM581.713 282.168H616.069ZM633.247 282.168H637.542ZM650.426 282.168H671.898ZM547.356 286.463H577.418ZM586.007 286.463H590.302ZM594.596 286.463H598.891ZM603.186 286.463H616.069ZM620.364 286.463H637.542ZM641.837 286.463H646.131ZM650.426 286.463H663.309ZM547.356 290.757H551.651ZM573.124 290.757H577.418ZM581.713 290.757H607.48ZM624.658 290.757H628.953ZM633.247 290.757H637.542ZM650.426 290.757H654.72ZM667.604 290.757H671.898ZM547.356 295.052H551.651ZM555.946 295.052H568.829ZM573.124 295.052H577.418ZM581.713 295.052H590.302ZM607.48 295.052H624.658ZM633.247 295.052H654.72ZM659.015 295.052H663.309ZM667.604 295.052H671.898ZM547.356 299.346H551.651ZM555.946 299.346H568.829ZM573.124 299.346H577.418ZM581.713 299.346H590.302ZM598.891 299.346H603.186ZM616.069 299.346H620.364ZM624.658 299.346H633.247ZM654.72 299.346H663.309ZM547.356 303.641H551.651ZM555.946 303.641H568.829ZM573.124 303.641H577.418ZM581.713 303.641H594.596ZM611.775 303.641H620.364ZM628.953 303.641H667.604ZM547.356 307.935H551.651ZM573.124 307.935H577.418ZM603.186 307.935H607.48ZM611.775 307.935H616.069ZM624.658 307.935H628.953ZM633.247 307.935H641.837ZM646.131 307.935H659.015ZM663.309 307.935H667.604ZM547.356 312.23H577.418ZM581.713 312.23H598.891ZM603.186 312.23H607.48ZM611.775 312.23H616.069ZM620.364 312.23H624.658ZM628.953 312.23H633.247ZM659.015 312.23H663.309Z" fill="black"/>
<path d="M547.356 191.982H577.418M611.775 191.982H620.364M624.658 191.982H637.542M641.837 191.982H671.898M547.356 196.277H551.651M573.124 196.277H577.418M586.007 196.277H603.186M624.658 196.277H628.953M633.247 196.277H637.542M641.837 196.277H646.131M667.604 196.277H671.898M547.356 200.572H551.651M555.946 200.572H568.829M573.124 200.572H577.418M581.713 200.572H586.007M590.302 200.572H594.596M607.48 200.572H611.775M616.069 200.572H620.364M628.953 200.572H637.542M641.837 200.572H646.131M650.426 200.572H663.309M667.604 200.572H671.898M547.356 204.866H551.651M555.946 204.866H568.829M573.124 204.866H577.418M581.713 204.866H586.007M590.302 204.866H603.186M616.069 204.866H624.658M628.953 204.866H633.247M641.837 204.866H646.131M650.426 204.866H663.309M667.604 204.866H671.898M547.356 209.161H551.651M555.946 209.161H568.829M573.124 209.161H577.418M581.713 209.161H586.007M590.302 209.161H598.891M603.186 209.161H616.069M620.364 209.161H624.658M628.953 209.161H633.247M641.837 209.161H646.131M650.426 209.161H663.309M667.604 209.161H671.898M547.356 213.455H551.651M573.124 213.455H577.418M581.713 213.455H590.302M594.596 213.455H628.953M633.247 213.455H637.542M641.837 213.455H646.131M667.604 213.455H671.898M547.356 217.75H577.418M581.713 217.75H586.007M590.302 217.75H594.596M598.891 217.75H603.186M607.48 217.75H611.775M616.069 217.75H620.364M624.658 217.75H628.953M633.247 217.75H637.542M641.837 217.75H671.898M581.713 222.044H586.007M598.891 222.044H607.48M611.775 222.044H616.069M624.658 222.044H628.953M633.247 222.044H637.542M547.356 226.339H551.651M555.946 226.339H577.418M594.596 226.339H603.186M607.48 226.339H616.069M620.364 226.339H624.658M628.953 226.339H633.247M641.837 226.339H663.309M581.713 230.633H586.007M590.302 230.633H594.596M611.775 230.633H654.72M667.604 230.633H671.898M555.946 234.928H577.418M586.007 234.928H590.302M633.247 234.928H641.837M650.426 234.928H654.72M568.829 239.222H573.124M590.302 239.222H594.596M598.891 239.222H603.186M607.48 239.222H611.775M616.069 239.222H620.364M624.658 239.222H637.542M646.131 239.222H659.015M663.309 239.222H667.604M547.356 243.517H560.24M564.535 243.517H581.713M586.007 243.517H598.891M616.069 243.517H624.658M628.953 243.517H633.247M646.131 243.517H650.426M654.72 243.517H663.309M551.651 247.812H560.24M564.535 247.812H573.124M590.302 247.812H594.596M603.186 247.812H616.069M620.364 247.812H654.72M667.604 247.812H671.898M547.356 252.106H551.651M555.946 252.106H581.713M586.007 252.106H590.302M594.596 252.106H598.891M603.186 252.106H620.364M624.658 252.106H628.953M633.247 252.106H637.542M646.131 252.106H650.426M654.72 252.106H663.309M547.356 256.401H551.651M555.946 256.401H564.535M586.007 256.401H594.596M598.891 256.401H607.48M611.775 256.401H616.069M628.953 256.401H633.247M641.837 256.401H646.131M650.426 256.401H654.72M663.309 256.401H667.604M560.24 260.695H564.535M573.124 260.695H577.418M581.713 260.695H598.891M607.48 260.695H616.069M620.364 260.695H624.658M646.131 260.695H650.426M654.72 260.695H663.309M547.356 264.99H555.946M564.535 264.99H573.124M577.418 264.99H590.302M594.596 264.99H603.186M611.775 264.99H620.364M624.658 264.99H637.542M641.837 264.99H654.72M659.015 264.99H663.309M667.604 264.99H671.898M547.356 269.284H551.651M555.946 269.284H568.829M573.124 269.284H577.418M620.364 269.284H628.953M637.542 269.284H641.837M659.015 269.284H663.309M547.356 273.579H551.651M586.007 273.579H590.302M598.891 273.579H603.186M607.48 273.579H611.775M616.069 273.579H620.364M624.658 273.579H650.426M663.309 273.579H667.604M547.356 277.873H551.651M555.946 277.873H560.24M564.535 277.873H568.829M573.124 277.873H581.713M586.007 277.873H594.596M598.891 277.873H603.186M620.364 277.873H624.658M628.953 277.873H654.72M659.015 277.873H671.898M581.713 282.168H616.069M633.247 282.168H637.542M650.426 282.168H671.898M547.356 286.463H577.418M586.007 286.463H590.302M594.596 286.463H598.891M603.186 286.463H616.069M620.364 286.463H637.542M641.837 286.463H646.131M650.426 286.463H663.309M547.356 290.757H551.651M573.124 290.757H577.418M581.713 290.757H607.48M624.658 290.757H628.953M633.247 290.757H637.542M650.426 290.757H654.72M667.604 290.757H671.898M547.356 295.052H551.651M555.946 295.052H568.829M573.124 295.052H577.418M581.713 295.052H590.302M607.48 295.052H624.658M633.247 295.052H654.72M659.015 295.052H663.309M667.604 295.052H671.898M547.356 299.346H551.651M555.946 299.346H568.829M573.124 299.346H577.418M581.713 299.346H590.302M598.891 299.346H603.186M616.069 299.346H620.364M624.658 299.346H633.247M654.72 299.346H663.309M547.356 303.641H551.651M555.946 303.641H568.829M573.124 303.641H577.418M581.713 303.641H594.596M611.775 303.641H620.364M628.953 303.641H667.604M547.356 307.935H551.651M573.124 307.935H577.418M603.186 307.935H607.48M611.775 307.935H616.069M624.658 307.935H628.953M633.247 307.935H641.837M646.131 307.935H659.015M663.309 307.935H667.604M547.356 312.23H577.418M581.713 312.23H598.891M603.186 312.23H607.48M611.775 312.23H616.069M620.364 312.23H624.658M628.953 312.23H633.247M659.015 312.23H663.309" stroke="black" stroke-width="4.29455"/>
</g>
</g>
<defs>
<filter id="filter0_d_7_25" x="0" y="0" width="788" height="524.421" filterUnits="userSpaceOnUse" color-interpolation-filters="sRGB">
<feFlood flood-opacity="0" result="BackgroundImageFix"/>
<feColorMatrix in="SourceAlpha" type="matrix" values="0 0 0 0 0 0 0 0 0 0 0 0 0 0 0 0 0 0 127 0" result="hardAlpha"/>
<feOffset dx="10" dy="10"/>
<feGaussianBlur stdDeviation="18.5"/>
<feComposite in2="hardAlpha" operator="out"/>
<feColorMatrix type="matrix" values="0 0 0 0 0 0 0 0 0 0 0 0 0 0 0 0 0 0 0.24 0"/>
<feBlend mode="normal" in2="BackgroundImageFix" result="effect1_dropShadow_7_25"/>
<feBlend mode="normal" in="SourceGraphic" in2="effect1_dropShadow_7_25" result="shape"/>
</filter>
<linearGradient id="paint0_linear_7_25" x1="94.3784" y1="87.4668" x2="121.625" y2="130.341" gradientUnits="userSpaceOnUse">
<stop stop-color="#00AEEF"/>
<stop offset="1" stop-color="#F9ED32"/>
</linearGradient>
<linearGradient id="paint1_linear_7_25" x1="96.1342" y1="86.3512" x2="123.381" y2="129.226" gradientUnits="userSpaceOnUse">
<stop stop-color="#00AEEF"/>
<stop offset="1" stop-color="#F9ED32"/>
</linearGradient>
<linearGradient id="paint2_linear_7_25" x1="95.5591" y1="86.7165" x2="122.806" y2="129.591" gradientUnits="userSpaceOnUse">
<stop stop-color="#00AEEF"/>
<stop offset="1" stop-color="#F9ED32"/>
</linearGradient>
<linearGradient id="paint3_linear_7_25" x1="92.624" y1="88.5821" x2="119.87" y2="131.456" gradientUnits="userSpaceOnUse">
<stop stop-color="#00AEEF"/>
<stop offset="1" stop-color="#F9ED32"/>
</linearGradient>
<linearGradient id="paint4_linear_7_25" x1="93.1988" y1="88.2164" x2="120.445" y2="131.091" gradientUnits="userSpaceOnUse">
<stop stop-color="#00AEEF"/>
<stop offset="1" stop-color="#F9ED32"/>
</linearGradient>
<clipPath id="clip0_7_25">
<rect x="530.178" y="172.657" width="158.898" height="158.898" rx="4.41384" fill="white"/>
</clipPath>
</defs>
</svg>
